<?xml version="1.0" encoding="utf-8"?>
<!-- Generator: Adobe Illustrator 19.0.1, SVG Export Plug-In . SVG Version: 6.00 Build 0)  -->
<svg version="1.1" id="Layer_1" xmlns="http://www.w3.org/2000/svg" xmlns:xlink="http://www.w3.org/1999/xlink" x="0px" y="0px"
	 viewBox="0 0 445 202.6" style="enable-background:new 0 0 445 202.6;" xml:space="preserve">
<style type="text/css">
	.st0{fill:#4F63C6;}
	.st1{fill:#54B8EA;}
	.st2{fill:#26A7DE;}
	.st3{fill:#CAF28C;}
	.st4{fill:#A1E04F;}
	.st5{fill:none;stroke:#A1E04F;stroke-width:7;stroke-miterlimit:10;}
	.st6{fill:#ECFFCC;}
	.st7{fill:#EAFFC5;}
	.st8{fill:#EAFFC5;stroke:#000000;stroke-width:5;stroke-miterlimit:10;}
</style>
<g>
	<path class="st0" d="M305.9,54.3c-3.5,21-5.3,29.6-11.2,31.4c-1.2,0.3-4.7,0.4-7.6-0.1c-6.1-1-6.3-3-5-10.9l5.3-32.1l-22.1,12
		l-2.8,16.8c-1.2,7.3-2.1,9.8-11.1,8.3l-0.6-0.1l-0.1,0.5l37.5,6.2c10,1.7,21,3.4,30.7-8.5c3.8-4.7,6.8-11.7,8.1-19.1
		c1.1-6.4,0.8-12.9-1.2-18.3c-2.5-6.6-5.5-10.9-9-13.8l-8.5,4.6C308.9,36.2,307.8,43.1,305.9,54.3z"/>
	<path class="st0" d="M326.8,117.6c-33.7-13.7-77.6-19.7-123.6-16.7c-9.6,0.6-19,1.6-28.2,2.9L152.6,116c16.2-3.6,33.4-6,51.1-7.1
		c44.9-2.9,87.5,2.9,120.1,16.2c16,6.5,28.5,14.4,37.1,23.2l6.6-4.7C358,133.6,344.3,124.7,326.8,117.6z"/>
	<path class="st0" d="M336.2,98.6c3.3,1.2,6.9-0.5,8.1-3.7s-0.5-6.8-3.8-8.1c-3.2-1.2-6.8,0.5-8,3.8S333,97.4,336.2,98.6z"/>
	<path class="st0" d="M437.9,80.6c-1.4,1-3.9,3.3-8.2,0.2c-4.7-3.4-4.1-10-12.6-16.2c-5.6-4-13.6-5.4-17.1-5.7
		c-13.7-1.2-26.1,7.2-32.1,15.4c-5.3,7.2-9,19.2-3.4,31.6c2.5,5.5,7.7,11.4,13.5,15.7c4.2,3.1,8.9,5.3,13.2,5.9
		c11.5,1.4,19-5.2,25.9-12.2l-0.4-0.3c-5.2,5-12.9,13.3-24.8,12.1c-3.4-0.4-7.7-1.9-11-4.3c-11.6-8.4-3.8-23.6,3-32.9l6-8.2
		c4.9-6.7,14-17.8,23.4-17.6c1.5,0,3,0.8,4.3,1.7c2.6,1.9,4.8,4.9,5.5,6.3c5.1,9.4-0.1,28.3-4.1,34.9l0.4,0.3l19.1-26.2L437.9,80.6z
		"/>
	<path class="st0" d="M346.4,111.9c-32.7-15.8-76.2-24.5-122.3-24.5c-6.7,0-13.4,0.2-20,0.6l-17.3,9.4c12.1-1.3,24.6-2,37.3-2
		c45,0,87.2,8.4,118.9,23.7c19.4,9.4,33.2,20.5,40.8,32.6l6.6-4.4C381.9,134,367,121.9,346.4,111.9z"/>
	<path class="st0" d="M405.8,142.4c-3.3,1.1-5.1,4.6-4,7.9c1.1,3.3,4.7,5.1,7.9,4s5-4.7,3.9-8C412.6,143,409.1,141.3,405.8,142.4z"
		/>
</g>
<g>
	<g>
		<path class="st1" d="M299.2,86.9c-2.3,0-4.5-0.2-6.7-0.5c1,0,1.9-0.1,2.4-0.2c6.3-1.8,8.1-11.1,11.5-31.8
			c1.9-11.2,2.9-17.9,2.4-22.9l7.9-4.3c3.6,3.1,6.4,7.5,8.6,13.4c1.9,5.1,2.3,11.5,1.2,18.1c-1.2,7.3-4.1,14.1-8,18.8
			C313.4,83.9,307.2,86.9,299.2,86.9z M256.7,80.5c4.7-0.4,5.5-3.6,6.4-9.1l2.8-16.6l20.9-11.4l-5.2,31.1c-0.7,4.3-0.9,6.7-0.3,8.3
			c0.4,0.9,1,1.6,1.9,2L256.7,80.5z"/>
		<path class="st2" d="M316.7,27.8c3.4,3,6.1,7.3,8.2,13c1.8,5,2.3,11.3,1.2,17.8c-1.2,7.1-4.1,14-7.8,18.6
			c-5.2,6.4-11.3,9.3-19,9.3c-1.1,0-2.2-0.1-3.2-0.1c5.8-2.5,7.6-11.9,10.9-31.8c1.8-11,2.9-17.7,2.5-22.7L316.7,27.8 M286.2,44.4
			l-5,30c-0.7,4.4-1,6.8-0.2,8.6c0.2,0.4,0.4,0.8,0.6,1.1l-22.3-3.7c2.9-1.3,3.6-4.4,4.4-8.9l2.7-16.3L286.2,44.4 M316.9,26.5
			l-8.5,4.6c0.6,5-0.5,11.9-2.4,23.1c-3.5,21-5.3,29.6-11.2,31.4c-0.6,0.2-1.6,0.2-2.9,0.2c-1.5,0-3.2-0.1-4.8-0.4
			c-6.1-1-6.3-3-5-10.9l5.3-32.1l-22.1,12l-2.8,16.8c-1,5.9-1.8,8.7-6.9,8.7c-1.2,0-2.6-0.1-4.2-0.4l-0.6-0.1l-0.1,0.5l37.5,6.2
			c3.5,0.6,7.2,1.2,10.9,1.2c6.7,0,13.5-2,19.8-9.7c3.8-4.7,6.8-11.7,8.1-19.1c1.1-6.4,0.8-12.9-1.2-18.3
			C323.4,33.8,320.4,29.5,316.9,26.5L316.9,26.5z"/>
	</g>
	<g>
		<path class="st1" d="M361,147.6c-8.8-8.9-21.3-16.6-37-23c-27.2-11.1-61-16.9-97.9-16.9c-7.4,0-14.9,0.2-22.4,0.7
			c-16.3,1-32.4,3.2-47.8,6.4l19.2-10.5c9.2-1.3,18.7-2.3,28.1-2.9c7.6-0.5,15.3-0.7,22.8-0.7c37.8,0,72.6,6,100.6,17.4
			c17.1,7,30.6,15.5,40.1,25.4L361,147.6z"/>
		<path class="st2" d="M226,101.2c37.8,0,72.5,6,100.4,17.4c16.8,6.8,30.1,15.2,39.5,24.9L361,147c-8.8-8.8-21.2-16.5-36.9-22.9
			C296.9,113,263,107.2,226,107.2c-7.4,0-14.9,0.2-22.4,0.7c-15.2,1-30.2,2.9-44.6,5.7l16.2-8.8c9.2-1.3,18.6-2.3,27.9-2.9
			C210.8,101.4,218.5,101.2,226,101.2 M226,100.2c-7.5,0-15.1,0.2-22.8,0.7c-9.6,0.6-19,1.6-28.2,2.9L152.6,116
			c16.2-3.6,33.4-6,51.1-7.1c7.5-0.5,15-0.7,22.4-0.7c36.5,0,70.6,5.8,97.8,16.9c16,6.5,28.5,14.4,37.1,23.2l6.6-4.7
			c-9.5-10-23.2-18.8-40.7-26C298.7,106.2,263.6,100.2,226,100.2L226,100.2z"/>
	</g>
	<g>
		<path class="st1" d="M338.4,98.5c-0.7,0-1.4-0.1-2-0.4c-1.4-0.5-2.6-1.6-3.2-3c-0.6-1.4-0.7-3-0.2-4.4c0.8-2.3,3-3.8,5.4-3.8
			c0.7,0,1.3,0.1,2,0.3c3,1.1,4.6,4.4,3.5,7.4C343,96.9,340.9,98.5,338.4,98.5L338.4,98.5z"/>
		<path class="st2" d="M338.4,87.4c0.6,0,1.2,0.1,1.8,0.3c1.3,0.5,2.4,1.5,3,2.7c0.6,1.3,0.7,2.7,0.2,4c-0.8,2.1-2.7,3.4-5,3.4
			c-0.6,0-1.3-0.1-1.9-0.3c-2.7-1-4.1-4-3.1-6.7C334.3,88.8,336.2,87.4,338.4,87.4 M338.4,86.4c-2.5,0-4.9,1.6-5.9,4.1
			c-1.2,3.2,0.4,6.8,3.7,8c0.7,0.3,1.5,0.4,2.2,0.4c2.6,0,5-1.6,5.9-4.1c1.2-3.2-0.5-6.8-3.8-8.1C339.8,86.5,339.1,86.4,338.4,86.4
			L338.4,86.4z"/>
	</g>
	<g>
		<path class="st1" d="M378.3,121.1c-6-4.3-10.9-10.1-13.3-15.5c-5.4-12.1-1.8-24,3.4-31.1c5.5-7.6,16.6-15.3,29-15.3
			c0.9,0,1.8,0,2.6,0.1c1.5,0.1,8.6,0.9,14.5,4.2c-0.5-0.1-0.9-0.2-1.3-0.2l-0.2,0c-7.1,0-15,6-23.6,17.8l-6,8.2
			C377.4,97.6,369.4,112,378.3,121.1C378.3,121.2,378.3,121.1,378.3,121.1z M420.7,104.2c3.5-7.7,6.5-21.4,3.7-30.1
			c0.2,0.4,0.4,0.7,0.6,1.1c1.2,2.4,2.3,4.5,4.4,6c1.5,1.1,3,1.7,4.4,1.7c1.3,0,2.4-0.5,3.2-1L420.7,104.2z"/>
		<path class="st2" d="M397.3,59.8c0.9,0,1.7,0,2.6,0.1c3.4,0.3,8,1.3,12.1,3c-7,0.5-14.8,6.6-23.1,18l-6,8.2
			c-10.7,14.7-10.3,23.9-7.2,29.4c-4.6-3.9-8.4-8.7-10.3-13c-5.3-11.9-1.8-23.6,3.3-30.6C374.1,67.3,385.1,59.8,397.3,59.8
			 M425.7,77.6c0.9,1.5,1.9,2.9,3.3,4c1.6,1.2,3.2,1.8,4.7,1.8c0.6,0,1.1-0.1,1.6-0.2l-12.8,17.7C425,94,426.7,84.8,425.7,77.6
			 M397.3,58.8c-12.6,0-23.9,7.8-29.4,15.5c-5.3,7.2-9,19.2-3.4,31.6c2.5,5.5,7.7,11.4,13.5,15.7c4.2,3.1,8.9,5.3,13.2,5.9
			c1.1,0.1,2.1,0.2,3.1,0.2c9.8,0,16.5-6.1,22.8-12.4l-0.4-0.3c-4.9,4.7-11.9,12.2-22.5,12.2c-0.8,0-1.5,0-2.3-0.1
			c-3.4-0.4-7.7-1.9-11-4.3c-11.6-8.4-3.8-23.6,3-32.9l6-8.2c4.8-6.6,13.9-17.6,23.2-17.6c0.1,0,0.1,0,0.2,0c1.5,0,3,0.8,4.3,1.7
			c2.6,1.9,4.8,4.9,5.5,6.3c5.1,9.4-0.1,28.3-4.1,34.9l0.4,0.3l19.1-26.2l-0.4-0.3c-0.9,0.6-2.2,1.8-4.1,1.8c-1.1,0-2.5-0.4-4.1-1.6
			c-4.7-3.4-4.1-10-12.6-16.2c-5.6-4-13.6-5.4-17.1-5.7C399.1,58.8,398.2,58.8,397.3,58.8L397.3,58.8z"/>
	</g>
	<g>
		<path class="st1" d="M383.9,151c-7.8-12-21.8-23.2-40.8-32.4c-31.7-15.3-74-23.8-119.1-23.8c-11.7,0-23.5,0.6-34.9,1.7l15-8.2
			c6.7-0.4,13.4-0.6,19.9-0.6c46.1,0,89.4,8.7,122.1,24.5c20,9.7,35,21.7,43.5,34.8L383.9,151z"/>
		<path class="st2" d="M224.1,88.4c46,0,89.3,8.7,121.9,24.4c19.7,9.5,34.6,21.3,43.1,34.2l-5,3.3c-7.9-11.9-21.9-23-40.7-32.1
			c-31.8-15.4-74.2-23.8-119.3-23.8c-10.9,0-21.8,0.5-32.5,1.5l12.8-6.9C211,88.6,217.6,88.4,224.1,88.4 M224.1,87.4
			c-6.7,0-13.4,0.2-20,0.6l-17.3,9.4c12.1-1.3,24.6-2,37.3-2c45,0,87.2,8.4,118.9,23.7c19.4,9.4,33.2,20.5,40.8,32.6l6.6-4.4
			c-8.5-13.3-23.4-25.4-44-35.4C313.7,96.1,270.2,87.4,224.1,87.4L224.1,87.4z"/>
	</g>
	<g>
		<path class="st1" d="M407.8,154.1c-2.5,0-4.7-1.6-5.5-4c-0.5-1.5-0.4-3,0.3-4.4c0.7-1.4,1.9-2.4,3.3-2.9c0.6-0.2,1.2-0.3,1.9-0.3
			c2.5,0,4.6,1.6,5.4,3.9c1,3-0.6,6.3-3.6,7.3C409,154,408.4,154.1,407.8,154.1L407.8,154.1z"/>
		<path class="st2" d="M407.8,143.1c2.2,0,4.2,1.4,4.9,3.5c0.9,2.8-0.6,5.8-3.3,6.7c-0.5,0.2-1.1,0.3-1.7,0.3c-2.3,0-4.3-1.5-5-3.6
			c-0.4-1.3-0.3-2.7,0.3-4c0.6-1.2,1.7-2.2,3.1-2.6C406.7,143.2,407.3,143.1,407.8,143.1 M407.8,142.1c-0.7,0-1.3,0.1-2,0.3
			c-3.3,1.1-5.1,4.6-4,7.9c0.9,2.7,3.3,4.3,6,4.3c0.7,0,1.3-0.1,2-0.3c3.3-1.1,5-4.7,3.9-8C412.9,143.7,410.4,142.1,407.8,142.1
			L407.8,142.1z"/>
	</g>
</g>
<g>
	<g>
		<path class="st3" d="M154.6,104.8c5.3-1.3,9.1-5.1,13.7-7.9c1.6-1,3.2-1.8,4.9-2.6c-1.1,0.2-2.2,0.3-3.3,0.5
			c-12.2,2.1-24.5,4.8-36.8,8.5c-12.2,3.8-24.3,8.4-36,14.4c-5.8,3-11.5,6.3-16.9,10.2c-5.4,3.8-10.5,8.1-15.1,12.9
			c-4.6,4.8-8.7,10.3-11.6,16.4l-1.1,2.3l-0.9,2.4c-0.3,0.8-0.6,1.6-0.8,2.4l-0.6,2.5l-0.3,1.2c-0.1,0.4-0.1,0.9-0.2,1.3l-0.4,2.6
			c-0.2,0.9-0.1,1.7-0.2,2.5l-0.1,2.5c0,6.1,1.2,11.1,3.5,14.3c-1.5-7.6-0.7-11-0.6-14.3l0.2-2.4c0.1-0.8,0.1-1.7,0.2-2.4l0.4-2.3
			c0.1-0.4,0.1-0.8,0.2-1.1l0.3-1.1l0.7-2.3c0.2-0.8,0.6-1.5,0.8-2.2l0.9-2.2l1.1-2.1c2.9-5.6,6.9-10.6,11.4-15
			c9.1-8.8,20.1-15.6,31.5-21c11.4-5.5,23.4-9.6,35.3-12.9c6-1.7,12-3.1,18-4.3C153.5,105.2,154,105,154.6,104.8z"/>
		<path class="st4" d="M154.6,104.8c5.3-1.3,9.1-5.1,13.7-7.9c4.9-3,10.3-4.9,15.5-7.2c0.5-0.2,1.1-0.5,1.6-0.8l-10.8,1.6
			c-1.8,0.3-3.5,0.5-5.3,0.8l0,0c-13.4,2.3-25.6,5.1-37.2,8.6c-13.8,4.2-25.8,9-36.5,14.6c-6.7,3.5-12.3,6.9-17.3,10.4
			c-6.1,4.3-11.2,8.7-15.7,13.4c-5.3,5.5-9.4,11.4-12.2,17.3l-1.1,2.3l-1,2.7l0,0.1c-0.1,0.2-0.2,0.5-0.3,0.7
			c-0.2,0.6-0.5,1.2-0.6,1.9l-0.9,3.7l0,0.2c-0.1,0.3-0.1,0.7-0.2,1l-0.4,2.9c-0.1,0.8-0.2,1.5-0.2,2.1c0,0.2,0,0.4,0,0.7l-0.1,2.6
			l0,0.1c-1.4,18.3,9.2,19.3,15.4,19.3c0,0-6.6-7.2-5.6-16.7c0.1-0.8,0.1-1.6,0.1-2.5l0.2-2.2c0-0.3,0-0.6,0.1-0.9
			c0-0.3,0-0.8,0.1-0.9l0.5-2.9c0-0.2,0.1-0.3,0.1-0.5l1-3.4c0.1-0.2,0.2-0.6,0.4-1c0.1-0.3,0.2-0.6,0.4-0.9l0.8-2l1-1.9
			c2.5-4.8,6.1-9.6,10.7-14.1c7.9-7.7,17.9-14.3,30.6-20.4c10-4.8,21-8.8,34.7-12.7c4.8-1.3,9.9-2.6,15.1-3.7
			C151,107.5,152.1,105.4,154.6,104.8z M162,99.8c-0.3,0.2-0.5,0.4-0.8,0.6c-6.2,1.1-12.3,2.3-18.2,3.8
			C149.2,102.5,155.5,101.1,162,99.8z"/>
	</g>
	<g>
		<path class="st3" d="M54.2,147.6c1.6-1.9,3-4,4.2-6.5c1.2-2.4,2.2-4.9,3-7.6c0.8-2.6,1.3-5.3,1.5-7.9c0.2-2.7,0.1-5.2-0.4-7.7
			c-0.5-2.6-1.3-5.3-2.4-8.1c-1.1-2.8-2.6-5.2-4.4-7.3c-2.3-2.7-5-4.9-8.1-6.6c-3.1-1.7-6.3-3.2-9.5-4.4c-1.3-0.5-2.6-1-3.9-1.4
			c-1.3-0.4-2.6-0.8-3.9-1.2c-2.3-0.8-4.5-1.6-6.7-2.5c-2.2-0.9-4.3-2.2-6.1-3.8c-1.1-1-2.1-2.2-3.1-3.6c-0.9-1.4-1.7-2.8-2.2-4.2
			c-0.4-1.2-0.7-2.4-0.7-3.8c-0.1-1.3,0.1-2.6,0.5-3.9c0.4-1.3,0.9-2.4,1.7-3.4c0.8-1,1.8-1.8,3-2.4c1.1-0.5,2.2-0.7,3.4-0.6
			c1.2,0.1,2.3,0.3,3.4,0.8c1.1,0.4,2.2,1,3.2,1.7c1,0.7,1.9,1.4,2.6,2.2c0.9,0.9,1.7,1.9,2.5,3c0.8,1.1,1.3,2.3,1.8,3.6
			c0.4,1.3,0.6,2.5,0.5,3.8c-0.1,1.3-0.5,2.5-1.4,3.6c-0.3,0.4-0.6,0.8-0.8,1.1c-0.2,0.4,0,0.7,0.6,1.1c0.5,0.4,0.9,0.5,1.4,0.4
			c0.4-0.1,0.9-0.4,1.2-0.7c0.4-0.3,0.7-0.7,1-1.2c0.3-0.5,0.5-0.9,0.7-1.3c0.7-1.2,1.1-2.5,1.4-3.9c0.3-1.4,0.3-2.8,0.2-4.2
			c-0.2-1.9-0.6-3.6-1.2-5.1c-0.6-1.5-1.5-3-2.6-4.6c-1-1.4-2.3-2.6-3.8-3.8c-1.5-1.2-3.2-2.1-4.9-2.7c-1.7-0.6-3.5-0.9-5.3-0.8
			c-1.8,0.1-3.5,0.8-5.1,2.1c-0.1,0.1-0.3,0.2-0.5,0.4c-0.2,0.2-0.4,0.3-0.6,0.4c-0.9,0.6-1.8,1.7-2.8,3.1c-1,1.4-1.8,3-2.5,4.5
			c-0.5,1.3-0.9,2.6-1.2,3.9c-0.3,1.3-0.6,2.7-0.7,4C7,73.4,7,74.6,7,75.8c0.1,1.2,0.2,2.4,0.4,3.6c0.4,2.1,1,4,1.9,6
			c0.9,1.9,2,3.7,3.3,5.4c1.3,1.7,2.7,3.2,4.4,4.5c1.7,1.3,3.5,2.4,5.4,3.2c1.5,0.6,3.1,1.3,4.6,1.9s3.1,1.3,4.6,1.9
			c2.8,1,5.7,2,8.6,2.9c2.9,1,5.5,2.4,7.9,4.3c1.7,1.4,3.1,2.9,4.3,4.5c1.1,1.4,2,3,2.8,4.8c0.8,1.8,1.3,3.6,1.7,5.2
			c0.2,1,0.4,2.1,0.5,3.2c0.1,1.1,0.1,2.2,0.1,3.2c-0.1,1.9-0.5,3.7-1.2,5.5c-0.7,1.8-1.6,3.4-2.8,4.9c-1.2,1.5-2.5,2.8-4.1,3.9
			c-1.6,1.1-3.2,1.9-5.1,2.4c-1.4,0.4-2.9,0.7-4.7,1c-1.7,0.3-3.3,0.3-4.8,0c-1.3-0.2-2.6-0.6-3.9-1.1c-1.3-0.5-2.5-1.2-3.6-1.9
			c-2.6-1.7-4.9-4-6.8-6.7c-1.9-2.8-3.4-5.6-4.4-8.6c-0.6-1.7-0.9-3.4-0.9-5.2c-0.1-1.8,0.1-3.6,0.7-5.3c0.5-1.7,1.3-3.2,2.5-4.6
			c1.2-1.3,2.7-2.3,4.5-2.9c1.4-0.4,2.8-0.5,4.3,0c1.4,0.4,2.8,1.1,4,2.1c1.2,1,2.3,2.1,3.3,3.3c1,1.3,1.7,2.5,2.2,3.6
			c0.3,0.6,0.5,1.3,0.5,2c0,0.7,0,1.4,0,2.2c0,0.2,0,0.5,0,0.8c0,0.3,0.1,0.6,0.2,0.9c0.1,0.3,0.2,0.5,0.4,0.7
			c0.2,0.2,0.4,0.2,0.7,0.2c0.4,0,0.7-0.3,1-0.6c0.2-0.4,0.4-0.8,0.6-1.3c0.1-0.5,0.2-0.9,0.3-1.4c0.1-0.5,0.1-0.9,0.1-1.2
			c0.1-1.1,0-2.3-0.1-3.3c-0.2-1.1-0.4-2.2-0.8-3.3c-0.7-2-1.8-3.9-3.3-5.8c-1.5-1.9-3.2-3.4-5.1-4.6c-1.9-1.2-3.9-1.8-6.1-1.9
			c-2.2-0.1-4.3,0.7-6.4,2.2c-1,0.7-1.8,1.6-2.5,2.6c-0.7,1-1.3,2-1.8,3.1c-1.5,3.5-2.5,7.2-2.9,11.1c-0.3,3-0.1,6.1,0.6,9.4
			c0.6,3.3,1.7,6.4,3.2,9.3c1.5,2.9,3.3,5.6,5.6,7.9c2.2,2.4,4.8,4.1,7.7,5.3c3,1.2,6,1.8,8.8,1.8c2.8-0.1,5.7-0.8,8.6-2.4
			c1.1-0.6,2.1-1.2,3.1-2c1-0.7,1.9-1.5,2.8-2.4C52.5,149.5,53.4,148.6,54.2,147.6z"/>
		<path class="st4" d="M36.8,160.5c-3.2,0-6.4-0.7-9.7-2c-3.4-1.4-6.4-3.5-8.9-6.2c-2.4-2.6-4.5-5.5-6.1-8.8
			c-1.6-3.2-2.8-6.7-3.5-10.2c-0.7-3.6-0.9-7.1-0.6-10.4c0.4-4.2,1.5-8.3,3.2-12.1c0.6-1.3,1.3-2.5,2.1-3.7c0.9-1.3,2-2.4,3.2-3.3
			c1.4-1,2.8-1.8,4.2-2.3c-2-0.9-4-2.1-5.8-3.5c-1.9-1.5-3.6-3.2-5-5.1c-1.4-1.9-2.6-3.9-3.6-6c-1-2.2-1.8-4.5-2.2-6.8l0-0.2
			c-0.2-1.3-0.3-2.6-0.4-3.9c-0.1-1.4,0-2.8,0.1-4.2c0.2-1.5,0.4-2.9,0.8-4.4c0.4-1.5,0.8-3,1.4-4.4l0-0.1c0.8-1.8,1.7-3.5,2.8-5.1
			c1.2-1.8,2.4-3.1,3.7-4l0.4-0.3c0.3-0.3,0.5-0.5,0.8-0.6c2.1-1.6,4.4-2.5,6.9-2.6c2.3-0.1,4.5,0.2,6.7,1c2.1,0.8,4,1.9,5.8,3.3
			c1.8,1.4,3.3,2.9,4.5,4.5c1.3,1.8,2.3,3.6,3.1,5.3c0.7,1.8,1.2,3.9,1.5,6.1c0.2,1.8,0.1,3.5-0.2,5.2c-0.3,1.7-0.9,3.2-1.7,4.7
			c-0.2,0.5-0.5,1.1-0.9,1.7c-0.5,0.7-1,1.4-1.7,1.9c-0.8,0.7-1.6,1.1-2.6,1.4c-1.5,0.5-3.1,0.1-4.4-0.9c-2.4-1.7-2.4-4-1.7-5.5
			c0.3-0.6,0.6-1.1,1.1-1.8c0.4-0.6,0.6-1.1,0.7-1.7c0-0.8-0.1-1.6-0.4-2.4c-0.3-1-0.8-1.9-1.4-2.8c-0.6-0.9-1.3-1.7-2-2.4
			c-0.6-0.6-1.4-1.2-2.2-1.8c-0.8-0.5-1.6-1-2.5-1.3c-0.8-0.3-1.5-0.5-2.3-0.5c-0.6,0-1.1,0.1-1.7,0.3c-0.7,0.3-1.3,0.8-1.8,1.4
			c-0.5,0.6-0.9,1.3-1.1,2.2C15,69.1,14.9,70,14.9,71c0,1,0.2,1.9,0.5,2.7c0.4,1.1,1,2.3,1.8,3.4c0.8,1.2,1.6,2.1,2.5,2.9
			c1.6,1.4,3.3,2.4,5.1,3.2c2.2,0.9,4.4,1.7,6.6,2.4c1.3,0.4,2.5,0.8,3.8,1.2c1.4,0.4,2.8,0.9,4.2,1.5c3.3,1.3,6.7,2.8,9.9,4.6
			c3.4,1.9,6.5,4.4,9.1,7.4c2,2.3,3.7,5.1,5,8.2c1.2,2.9,2,5.9,2.6,8.7c0.5,2.8,0.7,5.8,0.5,8.7c-0.2,2.9-0.8,5.8-1.6,8.6
			c-0.8,2.8-1.9,5.6-3.2,8.2c-1.3,2.6-2.9,5-4.7,7.1c-0.9,1.1-1.8,2.1-2.8,3.1c-1,0.9-2,1.8-3.1,2.6c-1.1,0.8-2.3,1.6-3.5,2.3
			c-3.4,1.8-6.8,2.7-10.2,2.8C37.1,160.5,36.9,160.5,36.8,160.5z M20,143.5c1,1.5,2,2.8,3.2,4.1c1.9,2,4,3.5,6.5,4.5
			c2.5,1,5,1.5,7.4,1.5c2.3,0,4.6-0.7,7-2c0.5-0.3,1-0.5,1.4-0.8c-0.1,0-0.1,0-0.2,0c-1.5,0.4-3.2,0.8-5,1.1c-2.1,0.3-4.1,0.3-5.9,0
			c-1.5-0.2-3-0.7-4.6-1.3c-1.5-0.6-3-1.4-4.2-2.2C23.5,147,21.7,145.4,20,143.5z M25.1,115.2c-0.4,0-0.7,0.1-1.1,0.2
			c-1.2,0.4-2.2,1-2.9,1.9c-0.8,1-1.4,2-1.8,3.3c-0.4,1.3-0.6,2.7-0.5,4.2c0.1,1.5,0.3,2.9,0.8,4.3c0.9,2.6,2.3,5.2,4,7.7
			c1.7,2.4,3.6,4.3,5.9,5.8c0.9,0.6,1.9,1.1,3,1.6c1.1,0.4,2.1,0.7,3.1,0.9c1.2,0.2,2.4,0.2,3.7,0c1.6-0.2,3-0.6,4.2-0.9
			c1.5-0.4,2.8-1,4-1.9c1.3-0.9,2.4-2,3.4-3.2c0.9-1.2,1.7-2.6,2.3-4c0.5-1.4,0.9-2.9,0.9-4.4c0-0.9,0-1.9-0.1-2.8
			c-0.1-0.9-0.2-1.8-0.4-2.7c-0.3-1.5-0.9-3-1.5-4.7c-0.6-1.5-1.4-2.9-2.3-4l-0.1-0.1c-1-1.4-2.2-2.7-3.7-3.8
			c-2-1.6-4.3-2.9-6.8-3.7c-0.1,0-0.3-0.1-0.4-0.1c0.1,0.1,0.1,0.1,0.2,0.2c1.7,2.2,3,4.5,3.8,6.9l0,0.1c0.4,1.2,0.7,2.5,0.9,3.7
			c0.2,1.3,0.3,2.7,0.2,4.1c0,0.3,0,0.8-0.1,1.3c-0.1,0.7-0.2,1.4-0.4,2.1c-0.2,0.7-0.5,1.4-0.9,2c-0.8,1.3-2.1,2.1-3.6,2.3
			c-1.4,0.2-2.7-0.3-3.6-1.3c-0.6-0.6-1-1.4-1.2-2.2c-0.1-0.5-0.2-0.9-0.2-1.4c0-0.4-0.1-0.9,0-1.3c0-0.7,0-1.4,0-2.1
			c0-0.2,0-0.3-0.1-0.4l-0.1-0.2c-0.4-0.9-1-1.9-1.8-2.9c-0.8-1-1.6-1.9-2.6-2.7c-0.9-0.7-1.8-1.2-2.9-1.5
			C25.8,115.2,25.4,115.2,25.1,115.2z M55.2,112c1.2,1.6,2.3,3.5,3.2,5.6c0.3,0.7,0.5,1.3,0.8,2c-0.1-0.4-0.1-0.7-0.2-1.1
			c-0.5-2.4-1.2-4.9-2.3-7.5c-0.9-2.4-2.2-4.5-3.7-6.2c-2-2.4-4.4-4.3-7.1-5.8c-2.9-1.6-6-3-9.1-4.2c-1.3-0.5-2.5-0.9-3.6-1.3
			c-1.3-0.4-2.7-0.8-4-1.3c-2.3-0.8-4.6-1.6-6.9-2.5c-2.6-1-5-2.5-7.2-4.4c-1.3-1.1-2.6-2.6-3.7-4.2c0,0-0.1-0.1-0.1-0.1
			c0.3,1,0.7,2,1.2,3c0.8,1.7,1.8,3.3,2.9,4.8c1.1,1.4,2.4,2.7,3.8,3.9c1.4,1.1,2.9,2,4.5,2.7c1.5,0.6,3.1,1.3,4.6,1.9
			c1.5,0.6,3,1.2,4.5,1.8c2.7,1,5.6,1.9,8.5,2.9c3.3,1.1,6.3,2.7,9,4.9C52.2,108.4,53.9,110.2,55.2,112z M24.6,107.9
			c-0.9,0-1.9,0.3-2.9,0.8c0,0,0.1,0,0.1,0c1.9-0.6,3.8-0.7,5.7-0.2c-0.9-0.3-1.8-0.5-2.8-0.5C24.7,107.9,24.6,107.9,24.6,107.9z
			 M20.2,57.4C20.2,57.4,20.2,57.4,20.2,57.4c1.6,0.1,3.1,0.4,4.5,1c1.4,0.5,2.7,1.2,3.9,2.1c0.9,0.6,1.7,1.2,2.4,1.9
			c-0.7-0.8-1.5-1.5-2.4-2.2c-1.2-1-2.6-1.7-3.9-2.2c-1.3-0.5-2.5-0.7-3.8-0.6C20.5,57.3,20.3,57.3,20.2,57.4z"/>
	</g>
	<g>
		<path class="st3" d="M233.6,41.8c-0.9-1.5-2.7-2.1-5.4-1.7c-2.5,0.4-5,1.1-7.4,2.2c-2.4,1.1-4.6,2.4-6.7,3.9
			c-3.3,2.4-6.1,5.3-8.4,8.5c-2.3,3.2-4.2,6.7-5.7,10.4c-0.6,1.4-1.2,2.9-1.7,4.7c-0.2,0.6-0.3,1.1-0.4,1.7c-0.5,0.7-1,1.4-1.6,2.1
			c-0.9,1-1.8,2.1-2.9,3.2c-1,1.1-2.2,2-3.4,2.6c-0.5,0.2-1,0.3-1.6,0.4c-0.6,0-1.1-0.2-1.5-0.6c-0.4-0.5-0.6-1.1-0.5-1.9
			c0.1-0.8,0.3-1.6,0.7-2.4c0.4-0.8,0.8-1.6,1.2-2.4c0.4-0.8,0.8-1.4,1.1-1.9c0.9-1.7,1.7-3.3,2.5-5c0.8-1.7,1.6-3.3,2.4-5
			c0.4-0.7,0.8-1.4,1.1-2.1c0.3-0.7,0.7-1.5,1-2.2c2-3.9,4-7.8,6.2-11.6c2.2-3.8,4.2-7.6,6.2-11.6c2.9-5.9,6-11.8,9.1-17.7
			c0.4-0.7,0.6-1.4,0.6-2.2c0.1-0.8,0.1-1.5,0.1-2.3c0-0.6-0.2-1.1-0.4-1.5c-0.2-0.3-0.7-0.5-1.3-0.6c-0.5-0.1-1.1-0.1-1.6,0
			c-0.6,0.1-1.1,0.2-1.5,0.4c-0.6,0.2-1.2,0.3-1.8,0.4c-0.6,0.1-1.2,0.2-1.8,0.2c-0.8,0-1.5,0.1-2.1,0.4c-0.6,0.3-1,0.9-1.2,1.8
			c-0.1,0.8-0.3,1.5-0.5,2.3c-0.2,0.8-0.4,1.5-0.7,2.2c-1,2.7-2.3,5.3-3.8,7.8c-1.5,2.5-2.9,5.1-4.2,7.7c-1.3,2.7-2.7,5.4-4,8
			c-1.3,2.7-2.7,5.3-4.1,8c-1.3,2.5-2.6,5-4,7.4c-0.2,0.4-0.4,0.7-0.6,1.1c0,0-0.1,0-0.1,0.1c-0.5,0.4-1,1-1.5,1.7
			c-0.5,0.7-0.9,1.4-1.4,2.1c-0.4,0.7-0.7,1.2-0.8,1.4c-1.1,1.8-2.1,3.5-3,5.3c-1,1.8-2,3.5-3,5.3c-0.9,1.5-1.8,3-2.7,4.4
			c-1,1.5-2.1,2.7-3.5,3.8c-0.8,0.6-1.6,1-2.3,1.1c-0.8,0.2-1.4,0.1-2-0.2s-1-0.7-1.4-1.4c-0.3-0.7-0.4-1.5-0.3-2.5
			c0.1-1.3,0.4-2.6,0.9-3.9c0.5-1.3,1-2.5,1.6-3.7c2.4-4.7,4.6-9.5,6.6-14.2c2.1-4.8,4.1-9.5,6.3-14.4c0.4-1.1,1-2,1.6-2.9
			c0.6-0.8,1.5-1.3,2.7-1.5c0.9-0.2,1.8-0.3,2.9-0.3c1,0,1.9-0.3,2.7-0.9c0.4-0.3,0.7-0.8,0.9-1.5c0.2-0.7,0.1-1.3-0.4-1.5
			c-0.4-0.2-0.8-0.3-1.3-0.2c-0.5,0-1,0.1-1.6,0.2c-0.6,0.1-1.1,0.2-1.6,0.3c-0.5,0.1-1,0.1-1.3,0.1c0.2-1.7,0.8-3.4,1.7-5
			c0.9-1.6,1.7-3.2,2.3-4.7c0.6-1.4,1.2-2.8,1.8-4.1c0.6-1.3,1.1-2.7,1.3-4.1c0.1-0.6,0.3-1.3,0.5-2.1c0.2-0.8,0.1-1.4-0.3-2
			c-0.6-0.7-1.3-1-2.2-0.9c-0.9,0.2-1.6,0.3-2.3,0.6c-0.6,0.2-1.2,0.3-1.9,0.4c-0.7,0-1.4,0.1-2.1,0.2c-0.7,0.1-1.4,0.3-2,0.5
			c-0.6,0.2-1.1,0.5-1.6,0.9c-0.4,0.4-0.6,0.9-0.8,1.5c-0.2,0.6-0.3,1.2-0.5,1.8c-0.1,0.6-0.2,1.3-0.3,1.9c-0.1,0.6-0.2,1.2-0.3,1.7
			c-0.4,1.3-0.7,2.6-1.2,3.8c-0.4,1.3-0.9,2.5-1.4,3.8c-0.3,0.7-0.5,1.4-0.8,2.2c-0.3,0.8-0.7,1.6-1.1,2.3c-0.4,0.7-0.9,1.4-1.5,2
			c-0.6,0.6-1.3,1-2.1,1.2c-0.4,0.1-0.9,0.2-1.6,0.2c-0.7,0-1.4,0.1-2,0.2c-0.7,0.1-1.3,0.3-1.8,0.7c-0.2,0.1-0.4,0.3-0.5,0.5
			c-0.1-0.2-0.2-0.4-0.4-0.5c-0.4-0.2-0.8-0.2-1.3-0.1c-0.5,0.1-1,0.2-1.6,0.3c-0.5,0.1-1.1,0.3-1.6,0.4c-0.5,0.1-1,0.2-1.3,0.2
			c0.1-1.7,0.5-3.4,1.3-5.1c0.8-1.7,1.4-3.3,1.9-4.9c0.5-1.4,1-2.8,1.5-4.2s0.9-2.8,1-4.2c0.1-0.6,0.2-1.3,0.3-2.1
			c0.1-0.8-0.1-1.4-0.5-1.9c-0.6-0.7-1.4-0.9-2.2-0.7c-0.9,0.2-1.6,0.5-2.3,0.7c-0.6,0.2-1.2,0.4-1.9,0.5c-0.7,0.1-1.4,0.2-2.1,0.4
			s-1.3,0.4-1.9,0.6c-0.6,0.3-1.1,0.6-1.5,1c-0.3,0.4-0.6,1-0.7,1.6c-0.1,0.6-0.2,1.2-0.3,1.9c-0.1,0.6-0.1,1.3-0.2,1.9
			c0,0.6-0.1,1.2-0.2,1.7c-0.3,1.3-0.6,2.6-0.9,3.9c-0.4,1.3-0.7,2.6-1.1,3.9c-0.2,0.7-0.4,1.5-0.7,2.3c-0.2,0.8-0.6,1.6-0.9,2.4
			c-0.4,0.8-0.8,1.5-1.4,2.1c-0.5,0.6-1.2,1-2,1.3c-0.4,0.1-0.9,0.2-1.6,0.3c-0.7,0.1-1.3,0.2-2,0.3c-0.7,0.2-1.2,0.4-1.7,0.8
			c-0.5,0.4-0.7,0.9-0.7,1.5c0,0.7,0.3,1.1,0.8,1.3c0.5,0.1,1.1,0.1,1.7,0c0.6-0.1,1.3-0.2,2-0.3c0.7-0.1,1.2-0.1,1.7,0.1
			c-0.4,0.3-0.6,0.6-0.7,1.1c-0.1,0.5-0.2,0.9-0.3,1.3c-0.3,1-0.8,2.2-1.4,3.4c-1.9,4.3-3.7,8.8-5.4,13.3s-3.1,9.1-4.4,13.6
			c-0.4,1.4-0.8,2.9-1.1,4.7c-0.1,0.9-0.2,1.8-0.3,2.8c-0.2,0.5-0.4,1-0.6,1.4c-0.7,1.6-1.4,3.2-2.2,4.8c-0.2,0.2-0.4,0.6-0.6,1.1
			c-0.3,0.5-0.6,0.9-0.9,1.4c-0.3,0.5-0.7,0.9-1.1,1.2c-0.4,0.3-0.8,0.4-1.2,0.4c-0.5-0.1-0.9-0.3-1-0.7c-0.2-0.4-0.3-0.8-0.3-1.2
			c-0.3-2.1-0.2-4.2,0.3-6.3c0.5-2.1,0.9-4.2,1.3-6.1c0.2-1,0.4-1.9,0.5-2.8c0.2-0.9,0.3-1.9,0.5-2.8c0.6-3.2,1.1-6.4,1.6-9.6
			c0.5-3.2,1.1-6.4,1.9-9.5c0-0.2,0.1-0.5,0.2-0.8c0.1-0.3,0.1-0.7,0.1-0.9c0-0.3-0.1-0.6-0.2-0.8c-0.2-0.3-0.4-0.4-0.7-0.5
			c-0.5-0.1-1,0-1.4,0.4c-0.4,0.4-0.8,0.6-1.2,0.8c-0.9,0.4-1.9,0.8-2.9,1.1c-1,0.3-1.9,0.8-2.6,1.5c-0.6,0.5-0.9,1.1-1,1.8
			c-0.1,0.2-0.2,0.5-0.3,1.1c-0.1,0.6-0.1,0.9,0,1c-0.7-0.4-1.3-0.9-1.8-1.5c-0.6-0.5-1.3-0.8-2.1-0.7c-0.6,0-1.1,0.1-1.7,0.2
			c-0.5,0.1-1.1,0.3-1.6,0.4c-1.1,0.4-2.1,1-3,1.8c-0.9,0.8-1.7,1.5-2.6,2.3c-1,0.9-2,1.8-2.8,2.9c-0.8,1-1.7,2-2.5,3.1
			c-0.5,0.8-1,1.5-1.5,2.3c-0.5,0.7-0.9,1.5-1.3,2.3c-1.5,2.8-2.7,5.6-3.5,8.5c-0.9,2.9-1.6,5.9-2.1,8.9c-0.4,2.1-0.5,4.1-0.4,6.2
			c0.1,1.6,0.3,3.1,0.6,4.5c0,0.1,0.1,0.3,0.1,0.4c-0.2,0.8-0.4,1.6-0.6,2.4c-0.3,1.1-0.7,2.2-1.2,3.2c-0.5,1-1.1,2-1.8,2.9
			c-0.7,0.9-1.5,1.6-2.5,2.2c-1,0.6-1.9,0.9-2.8,0.9c-0.8,0-1.6-0.3-2.3-0.7c-0.7-0.5-1.3-1.1-1.8-1.9c-0.5-0.8-0.8-1.6-1.1-2.6
			c-0.4-1.5-0.6-2.8-0.5-3.9c0.1-1.1,0.3-2.1,0.7-3c0.4-0.9,1-1.8,1.7-2.8c0.7-0.9,1.5-1.9,2.4-3.1c0.8-1,1.6-2.2,2.6-3.6
			c1-1.4,1.8-2.9,2.6-4.5c0.8-1.6,1.5-3.2,2-4.9s0.8-3.3,0.9-4.8c0-1.5-0.3-3-1-4.3c-0.7-1.4-1.8-2.5-3.3-3.4
			c-1.5-0.9-3.3-0.5-5.6,1.1c-2,1.5-3.8,3.4-5.4,5.5c-1.6,2.1-2.9,4.3-3.9,6.7c-1.7,3.7-2.8,7.6-3.2,11.5c-0.5,3.9-0.4,7.9,0,11.8
			c0.1,1.5,0.4,3.1,0.8,4.9c0.4,1.8,1,3.4,1.8,5c0.8,1.5,1.8,2.8,3.1,3.8c1.3,1,2.9,1.5,4.9,1.5c1.5,0,2.9-0.3,4.3-1
			c1.3-0.5,2.4-1.2,3.4-2c1-0.8,1.9-1.7,2.7-2.8c1.6-2,2.8-4.2,3.6-6.4c0.4-1.1,0.8-2.2,1.1-3.4c0.2,0.3,0.4,0.6,0.6,0.9
			c0.6,0.8,1.4,1.5,2.2,2c0.9,0.5,1.8,0.8,3,0.7l0.2,0c1.4-0.1,2.7-0.7,4-1.5c1.2-0.9,2.3-1.8,3.2-2.9c1.7-2,3.1-4.3,4.1-6.7
			c0.2-0.6,0.4-1.1,0.7-1.7c0.2-0.5,0.5-1.1,0.8-1.6c0.1-0.3,0.3-0.7,0.4-1c0.1-0.4,0.3-0.7,0.6-0.8c0.2,0.3,0.2,0.5,0.2,0.9
			c0,0.3,0,0.6,0,1c0.2,1.3,0.6,2.6,1.4,3.7c0.7,1.2,1.7,2,3,2.6c1.4,0.6,2.6,0.7,3.8,0.2c1.2-0.5,2.3-1.3,3.3-2.3
			c1-1,1.9-2.2,2.6-3.5c0.7-1.3,1.3-2.5,1.7-3.5c0.4-1,0.8-2,1.3-3.1c0.2,0.9,0.5,1.7,0.9,2.5c0.7,1.4,1.9,2.5,3.5,3.3
			c0.9,0.5,1.8,0.7,2.7,0.8c2.2,0.3,4.1-0.1,5.9-1.2c1.8-1,3.4-2.4,4.8-4.1c1.4-1.7,2.7-3.5,3.8-5.4c0.5-0.9,1-1.8,1.5-2.6
			c0.1,1.2,0.4,2.3,0.9,3.4c0.6,1.5,1.7,2.7,3.2,3.5c0.9,0.5,1.8,0.8,2.6,1c2.1,0.4,4.1,0.2,6-0.8c1.8-0.9,3.5-2.2,5.1-3.7
			c1.6-1.6,3-3.3,4.2-5.1c1.2-1.8,2.4-3.5,3.4-4.9c-0.2,0.9-0.3,1.8-0.4,2.7c-0.1,1.8,0.1,3.4,0.8,4.9c0.5,1,1.2,1.9,2.3,2.5
			c1,0.6,2.1,1,3.2,1c0.4,0,0.8-0.1,1.1-0.1c0.4-0.1,0.7-0.2,1.1-0.3c2-0.7,3.7-1.7,5.1-2.8c1.4-1.1,2.8-2.4,4.3-3.9
			c1.1-1,2.2-2.1,3.1-3.2c0.1,1.3,0.4,2.5,0.8,3.6c0.2,0.4,0.4,0.9,0.7,1.3c0.9-0.6,1.8-1.1,2.7-1.5c2-1.2,4.1-2.3,6.2-3.4
			c-0.3-0.7-0.5-1.4-0.5-2.1c-0.1-0.9,0.1-1.8,0.3-2.8c0.4-1.5,0.9-2.7,1.5-3.6c0.6-0.9,1.3-1.7,2.1-2.3c0.8-0.6,1.8-1.1,2.8-1.6
			c1.1-0.4,2.3-0.9,3.6-1.5c1.2-0.5,2.5-1.1,4-1.9c1.5-0.7,3-1.6,4.5-2.6c1.5-1,2.9-2.1,4.2-3.3c1.3-1.2,2.3-2.4,3.1-3.8
			c0.8-1.3,1.2-2.8,1.3-4.3C234.9,44.9,234.5,43.4,233.6,41.8z M74.3,96.3c-0.2-0.4-0.3-1-0.3-1.7c0-0.7-0.1-1.4,0-2.1
			c0-0.7,0.1-1.2,0.1-1.4c0.1-1.5,0.2-2.9,0.4-4.4c0.2-1.4,0.4-2.9,0.6-4.4c0.1-0.5,0.2-0.9,0.3-1.4c0.1-0.5,0.2-1,0.3-1.6
			c0.2-0.6,0.4-1.4,0.6-2.4c0.3-0.9,0.7-1.7,1.2-2.2c0.4-0.4,0.8-0.4,1.4-0.2c0.5,0.2,0.8,0.5,1,1c0.5,1,0.8,2.2,0.8,3.5
			c0,1.3-0.1,2.5-0.2,3.6c-0.2,1.9-0.6,3.9-1.2,5.8c-0.6,2-1.3,3.8-2.3,5.6c-0.1,0.1-0.3,0.4-0.6,1c-0.3,0.5-0.7,1-1,1.3
			C74.8,96.7,74.5,96.7,74.3,96.3z M112.8,70c-0.2,1.3-0.4,2.7-0.6,4c-0.5,3-1,5.9-1.8,8.8c-0.7,2.9-1.6,5.8-2.5,8.6
			c-0.6,1.7-1.2,3.3-2,4.9c-0.8,1.6-1.8,3-3,4.3c-0.7,0.7-1.5,1.1-2.3,1.3c-0.8,0.1-1.5-0.2-2.3-1c-0.5-0.4-0.8-1-1-1.7
			c-0.2-0.7-0.2-1.4-0.3-2.1c0-0.7,0-1.5,0.1-2.2c0.1-0.7,0.1-1.4,0.2-1.9c0.2-1.4,0.4-2.7,0.6-4.1c0.2-1.3,0.5-2.7,0.8-4
			c0.3-1.3,0.6-2.6,0.9-3.9c0.3-1.3,0.6-2.6,1-3.9c0.6-2.3,1.4-4.7,2.2-7.3c0.9-2.5,2.1-4.7,3.6-6.5c0.6-0.7,1.3-1.3,2.2-1.9
			c0.9-0.6,1.8-0.6,2.7-0.1c0.7,0.5,1.2,1.2,1.4,2c0.2,0.9,0.3,1.7,0.3,2.5C113.1,67.3,113,68.7,112.8,70z M158.7,57.6
			c-2,4.4-3.8,8.8-5.4,13.3c-0.4,1.1-0.8,2.2-1.1,3.5c-0.3,0.7-0.7,1.4-1,2.1c-0.7,1.6-1.5,3.1-2.4,4.6s-1.9,2.9-3.2,4
			c-0.8,0.6-1.5,1.1-2.2,1.3c-0.7,0.2-1.4,0.2-2,0c-0.6-0.2-1.1-0.7-1.5-1.3c-0.4-0.6-0.5-1.5-0.5-2.5c0-1.3,0.2-2.6,0.6-3.9
			c0.4-1.3,0.8-2.6,1.3-3.8c2-4.9,3.9-9.8,5.6-14.7c1.7-4.9,3.4-9.8,5.2-14.8c0.4-1.1,0.8-2.1,1.3-3c0.5-0.9,1.4-1.4,2.6-1.7
			c0.9-0.2,1.8-0.4,2.8-0.5c1-0.1,1.9-0.4,2.6-1.1c0.2-0.2,0.4-0.5,0.5-0.8c0.1,0.2,0.3,0.4,0.6,0.5c0.5,0.2,1.1,0.2,1.7,0.2
			c0.6-0.1,1.3-0.1,2-0.2c0.7-0.1,1.3,0,1.6,0.3c-0.4,0.2-0.6,0.6-0.8,1.1c-0.1,0.5-0.3,0.9-0.4,1.3c-0.4,1-1,2.1-1.7,3.3
			C162.8,49,160.7,53.3,158.7,57.6z M226.1,48.7c-0.6,1.1-1.3,2.2-2,3.1c-1.1,1.6-2.4,3.1-3.9,4.5c-1.5,1.5-3,2.7-4.7,3.7
			c-0.1,0.1-0.5,0.2-1,0.6c-0.6,0.3-1.1,0.5-1.5,0.7c-0.6,0.1-0.9,0-0.8-0.5c0-0.4,0.2-1,0.5-1.6c0.3-0.7,0.6-1.3,1-1.9
			c0.4-0.6,0.6-1,0.7-1.2c0.8-1.3,1.6-2.5,2.5-3.6c0.9-1.2,1.7-2.4,2.6-3.6c0.3-0.4,0.6-0.7,0.9-1.1c0.3-0.4,0.7-0.8,1-1.2
			c0.5-0.5,1-1.1,1.7-1.8c0.7-0.7,1.4-1.1,2.1-1.3c0.5-0.1,1,0,1.3,0.5c0.3,0.4,0.5,0.9,0.4,1.4C227,46.4,226.7,47.6,226.1,48.7z"/>
		<path class="st4" d="M236.6,40.1c-1.1-2-3.6-4.2-9-3.4c-2.8,0.4-5.7,1.2-8.4,2.5c-2.6,1.2-5.1,2.6-7.3,4.3
			c-3.6,2.6-6.7,5.8-9.2,9.2c-1.1,1.5-2.1,3.1-3,4.7c1.9-3.7,3.9-7.4,5.9-11c2.2-3.8,4.3-7.8,6.3-11.7c2.9-5.8,6-11.8,9-17.6
			c0.6-1.1,0.9-2.3,1-3.5c0.1-0.9,0.1-1.7,0.1-2.6l0-0.1l0-0.1c-0.1-1.3-0.4-2.3-1-3.2c-0.6-0.8-1.7-1.9-3.8-2.1
			c-0.9-0.1-1.8-0.1-2.7,0.1c-0.7,0.1-1.3,0.3-1.9,0.5c-0.5,0.1-1,0.2-1.4,0.3c-0.4,0.1-0.8,0.1-1.3,0.2c-1.3,0-2.5,0.3-3.5,0.8
			c-1.1,0.5-2.4,1.6-3.1,4.1l-0.1,0.3c-0.1,0.7-0.2,1.3-0.4,2c-0.1,0.6-0.3,1.1-0.6,1.8c-1,2.5-2.2,4.9-3.6,7.3
			c-1.5,2.6-3,5.3-4.3,7.9c-0.7,1.3-1.3,2.7-2,4c0.3-2.2-0.8-3.8-2.1-4.6l-0.4-0.2c-0.7-0.3-1.4-0.5-2.2-0.6c0.8-1.5,1.5-2.9,2-4.3
			c0.6-1.3,1.1-2.7,1.7-4c0.7-1.6,1.2-3.2,1.6-4.8c0.2-0.6,0.3-1.3,0.5-2.1c0.4-2.2-0.2-3.7-0.9-4.7l-0.1-0.2
			c-1.4-1.8-3.4-2.6-5.6-2.2c-1,0.2-2,0.4-2.8,0.7l-0.1,0c-0.3,0.1-0.6,0.1-1,0.2c-0.8,0-1.6,0.1-2.4,0.2c-0.9,0.1-1.8,0.3-2.6,0.6
			c-1.1,0.4-2.1,1-2.9,1.8l-0.2,0.2c-0.7,0.8-1.2,1.7-1.5,2.8c-0.2,0.7-0.4,1.5-0.5,2.3c-0.1,0.7-0.2,1.4-0.3,2.1
			c-0.1,0.5-0.1,1-0.2,1.3c-0.3,1.2-0.7,2.4-1.1,3.5c-0.4,1.2-0.9,2.5-1.4,3.7c-0.3,0.7-0.5,1.4-0.8,2.2c-0.2,0.6-0.5,1.2-0.9,1.8
			c-0.3,0.5-0.6,0.9-0.9,1.2c-0.2,0.2-0.4,0.3-0.6,0.3c0,0-0.2,0-0.7,0.1c-0.9,0-1.8,0.1-2.6,0.3c-0.3,0.1-0.6,0.1-0.9,0.2l-1.1-2.2
			c0.3-0.7,0.5-1.4,0.7-2c0.5-1.4,0.9-2.7,1.4-4.1c0.6-1.6,1-3.3,1.2-4.9c0.1-0.6,0.2-1.4,0.3-2.1c0.3-2.2-0.5-3.7-1.2-4.6l-0.1-0.2
			c-1.5-1.7-3.6-2.3-5.7-1.8c-1,0.3-1.9,0.5-2.7,0.9l-0.1,0c-0.2,0.1-0.6,0.2-0.9,0.2c-0.8,0.1-1.6,0.2-2.4,0.4
			c-0.9,0.2-1.7,0.5-2.6,0.8c-1.1,0.5-2,1.1-2.8,2l-0.1,0.2c-0.6,0.8-1.1,1.8-1.3,2.9c-0.2,0.7-0.3,1.5-0.4,2.3
			c-0.1,0.7-0.1,1.4-0.2,2.1c0,0.5-0.1,1-0.1,1.4c-0.2,1.2-0.5,2.4-0.8,3.6c-0.3,1.3-0.7,2.5-1.1,3.8c-0.2,0.7-0.4,1.4-0.7,2.2
			c-0.2,0.6-0.4,1.3-0.7,1.9c-0.2,0.5-0.5,0.9-0.8,1.3c-0.2,0.2-0.3,0.3-0.6,0.4c0,0-0.2,0.1-0.7,0.1c-0.9,0.1-1.8,0.2-2.6,0.5
			c-1.1,0.3-2,0.7-2.8,1.3c-1.5,1-2.3,2.7-2.2,4.5c0.1,2.7,1.9,4.1,3.4,4.5c0.3,0.1,0.6,0.1,1,0.2c-0.1,0.2-0.2,0.3-0.3,0.5
			l-0.1,0.2c-2,4.4-3.8,9-5.5,13.5c-1.6,4.4-3,8.8-4.3,13.2l0-0.2c0.6-3.2,1.1-6.5,1.6-9.6c0.5-3.1,1.1-6.2,1.9-9.3
			c0.1-0.2,0.1-0.6,0.2-1c0.1-0.5,0.1-0.9,0.2-1.4c0.1-1-0.2-2-0.7-2.9c-0.7-1.1-1.8-1.8-3-2.1c-1.7-0.3-3.3,0.1-4.5,1.3l-0.2,0.1
			c-0.8,0.4-1.7,0.7-2.6,1c-1.5,0.5-2.8,1.2-4,2.2c-0.3,0.3-0.6,0.6-0.9,1c-0.7-0.2-1.5-0.3-2.2-0.2c-0.8,0-1.6,0.1-2.3,0.3
			c-0.5,0.1-1.1,0.3-1.6,0.4l-0.4,0.1c-1.5,0.6-2.9,1.4-4.1,2.4c-0.9,0.8-1.8,1.5-2.6,2.3c-1.2,1-2.3,2.1-3.3,3.3
			c-0.9,1.1-1.8,2.2-2.6,3.2L95,66.1c-0.6,0.8-1.1,1.6-1.6,2.4c-0.5,0.8-1,1.7-1.4,2.5c-0.3,0.6-0.6,1.2-0.9,1.8
			c-0.2-0.6-0.4-1.1-0.7-1.6c-1-2-2.6-3.6-4.7-4.9c-1.9-1.2-5.2-1.9-9.5,1.3c-2.3,1.7-4.3,3.8-6.1,6.2c-1.7,2.3-3.2,4.8-4.3,7.3
			c-1.8,4-3,8.3-3.5,12.5c-0.5,4.2-0.5,8.4,0,12.6c0.1,1.6,0.4,3.4,0.9,5.3c0.5,2.1,1.2,4,2.1,5.8c1,2,2.4,3.6,4.1,5
			c1.9,1.5,4.3,2.3,7,2.3c0,0,0,0,0.1,0c2,0,3.9-0.4,5.8-1.3c1.5-0.7,2.9-1.5,4.1-2.5c1.2-1,2.2-2.1,3.3-3.3
			c1.4-1.8,2.6-3.7,3.5-5.8c1.2,0.6,2.6,1,4.1,0.9l0.3,0l0.4,0c2-0.2,3.9-0.9,5.6-2.1c1.5-1.1,2.8-2.3,3.8-3.5
			c1.4-1.6,2.5-3.4,3.5-5.2c0.9,1.1,2.1,1.9,3.4,2.4c2.2,1,4.5,1.1,6.6,0.2c1.6-0.7,3.1-1.7,4.4-3.1c1.2-1.2,2.3-2.7,3.1-4.2
			c0.2-0.3,0.3-0.6,0.5-0.8c0.7,0.6,1.5,1,2.3,1.4c1.3,0.6,2.6,1,3.9,1.1c2.9,0.3,5.6-0.2,8-1.7c2.1-1.2,4-2.8,5.7-4.8
			c0.7-0.8,1.4-1.7,2.1-2.6c0.8,0.9,1.8,1.7,2.9,2.3c1.3,0.7,2.6,1.2,3.8,1.4c2.9,0.5,5.6,0.2,8.1-1.1c2.2-1.1,4.2-2.5,6-4.4
			c0.9-0.9,1.8-1.9,2.7-2.9c0.8,1.4,1.9,2.6,3.3,3.5c1.5,1,3.2,1.5,5,1.5l0.2,0l0.2,0c0.1,0,0.2,0,0.3,0c0.2-0.1,0.4-0.2,0.6-0.2
			c3.8-1.7,7.5-3.9,11.2-6.1c0.3-0.3,0.6-0.5,0.9-0.8c0,0.1,0.1,0.1,0.1,0.2c4.9-3,9.9-6,15.1-8.3c-0.1-0.3-0.2-0.5-0.2-0.8
			c0-0.5,0-1.1,0.2-1.6l0-0.1c0.3-1.4,0.7-2.2,1-2.6c0.4-0.6,0.8-1,1.3-1.4c0.6-0.4,1.3-0.8,2-1.1c1.1-0.4,2.3-1,3.7-1.5
			c1.2-0.5,2.6-1.2,4.2-1.9c1.7-0.8,3.3-1.8,4.9-2.9c1.6-1.1,3.1-2.3,4.5-3.6c1.6-1.4,2.8-3,3.8-4.6c1-1.8,1.6-3.8,1.7-5.8
			C238.5,44.4,237.9,42.2,236.6,40.1z M82.1,72.3c1,0.6,1.6,1.2,1.9,1.9c0.4,0.9,0.6,1.8,0.6,2.8c0,1.1-0.2,2.2-0.6,3.3
			c0-0.5,0-0.9,0-1.4c0-1.8-0.4-3.5-1.2-5c-0.3-0.6-0.6-1.1-1.1-1.6C82,72.4,82,72.3,82.1,72.3z M79.3,117l-0.2,0.1
			c-0.9,0.4-1.8,0.7-2.8,0.7h0c-1.2,0-2.1-0.2-2.7-0.8c-0.9-0.7-1.6-1.6-2.2-2.7c-0.7-1.3-1.2-2.7-1.5-4.1c-0.4-1.6-0.6-3.1-0.7-4.4
			l0-0.1c-0.4-3.7-0.5-7.4,0-11c0.3-2.4,0.8-4.8,1.7-7.2c-0.1,1.2-0.2,2.4-0.3,3.6c0,0.2,0,0.7-0.1,1.4c0,0.8,0,1.7,0,2.5
			c0.1,1.1,0.3,2,0.6,2.8c0.3,0.8,0.8,1.4,1.5,1.8c-0.5,1.2-0.8,2.6-0.9,4c-0.1,1.5,0.1,3.1,0.6,4.9c0.3,1.3,0.8,2.5,1.5,3.6
			c0.8,1.2,1.7,2.2,2.9,2.9c1.2,0.8,2.6,1.2,4.1,1.3C80.2,116.5,79.8,116.7,79.3,117z M85.7,102.6c-0.3,1-0.6,1.9-1,2.8
			c-0.4,0.8-0.8,1.5-1.4,2.2c-0.4,0.6-0.9,1-1.5,1.3c-0.6,0.4-0.9,0.4-0.9,0.4c-0.2,0-0.3-0.1-0.5-0.2c-0.3-0.2-0.5-0.4-0.8-0.8
			c-0.3-0.4-0.5-0.9-0.6-1.5l0-0.1c-0.4-1.4-0.4-2.3-0.4-2.7c0-0.7,0.2-1.3,0.4-1.8c0.3-0.6,0.7-1.3,1.2-2c0.7-0.9,1.6-2,2.5-3.1
			c0.8-1,1.7-2.3,2.7-3.7c-0.1,1.1-0.1,2.1,0,3.2c0.1,1.7,0.3,3.3,0.7,4.8C86,101.7,85.9,102.2,85.7,102.6z M97.4,105.7L97.4,105.7
			l-0.3,0c-0.6,0-0.8-0.1-1-0.2c-0.5-0.3-0.9-0.7-1.3-1.2c-0.1-0.1-0.2-0.3-0.3-0.4l-1.4-2.3l0.1-0.5L93,99.9
			c-0.3-1.2-0.5-2.5-0.5-3.8c-0.1-1.8,0.1-3.6,0.4-5.4c0.5-2.9,1.2-5.8,2.1-8.5c0.6-2,1.4-4,2.3-6c-0.4,1.4-0.8,2.7-1.1,4.1
			c-0.3,1.2-0.5,2.5-0.9,3.8c-0.4,1.4-0.6,2.9-0.8,4.3c-0.2,1.4-0.4,2.7-0.6,4.1l0,0.2c0,0.5-0.1,1.1-0.2,1.8
			c-0.1,0.9-0.1,1.8-0.1,2.7c0,1,0.2,1.9,0.4,2.8c0.3,1.3,1,2.5,1.9,3.4c1,1,2,1.5,3,1.8C98.4,105.4,97.9,105.6,97.4,105.7z
			 M109.3,69.5l-0.6,4c-0.4,2.9-1,5.7-1.7,8.5c-0.7,2.8-1.6,5.6-2.4,8.4c-0.5,1.5-1.1,3-1.8,4.5c-0.5,1.1-1.2,2.2-2.1,3.1
			c0-0.3-0.1-0.6-0.1-0.9c0-0.6,0-1.1,0.1-1.7c0.1-0.7,0.1-1.4,0.2-2c0.2-1.3,0.3-2.6,0.5-3.9c0.2-1.2,0.4-2.4,0.7-3.6
			c0.3-1.4,0.6-2.7,0.9-4c0.2-1.2,0.6-2.4,0.9-3.5l0-0.1c0.6-2.2,1.4-4.6,2.2-7.1c0.7-2.1,1.7-3.9,3-5.4c0.1-0.1,0.3-0.3,0.4-0.4
			c0,0.3,0.1,0.6,0.1,0.9C109.6,67.2,109.5,68.4,109.3,69.5z M120.7,64.1c-0.5,3.2-1,6.4-1.6,9.6l-0.5,2.8c-0.1,0.9-0.3,1.8-0.5,2.7
			c-0.4,2-0.8,4-1.3,6.1c-0.5,2.5-0.7,5-0.3,7.4c0,0.7,0.2,1.4,0.5,2.1c0.4,1.1,1.2,2,2.2,2.5c-0.4,0.3-0.7,0.5-1.1,0.6
			c-0.1,0-0.4,0.2-1-0.1l-0.1,0c-0.6-0.2-1-0.6-1.4-1.2c-0.4-0.7-0.7-1.4-0.8-2.1l0-0.6c0-1-0.2-1.9-0.7-2.8l-1.6-2.6
			c0.5-1.6,0.9-3.2,1.3-4.8c0.8-3,1.4-6.1,1.9-9.2l0.6-4l0,0c0.2-1.5,0.3-3,0.3-4.6l0-0.2c-0.1-0.9-0.2-2-0.4-3
			c-0.1-0.7-0.4-1.4-0.7-2l2.8-3.6c1,0.9,1.1,2.1,1.1,2.5c0-0.1,0-0.1,0-0.2c0.1-0.2,0.1-0.4,0.1-0.5l0.1-0.2l0.1-0.3
			c0.3-0.3,0.7-0.5,1.3-0.7c0.4-0.1,0.7-0.2,1.1-0.4C121.5,59.6,121.1,61.8,120.7,64.1z M139.5,91.1c-1.1,0.7-2.3,0.9-3.7,0.7
			l-0.2,0c-0.4,0-0.9-0.2-1.5-0.5c-0.9-0.4-1.4-0.9-1.8-1.6c-0.3-0.5-0.5-1.2-0.7-1.8l-0.6-2.5l0.2-0.6l0-0.6c0-0.8,0.1-1.5,0.2-2.3
			c0.3-1.6,0.6-3,1-4.3c1.3-4.5,2.7-9,4.3-13.4c1.6-4.4,3.3-8.7,5.2-13c0.7-1.4,1.3-2.7,1.6-3.9l0-0.2c0.1-0.3,0.1-0.6,0.2-0.9
			l4.1-2.9l-3.2-1.7c0.3-0.3,0.6-0.6,0.9-0.9c0.7-0.8,1.4-1.8,1.9-2.9c0.4-0.9,0.8-1.9,1.1-2.9c0.2-0.8,0.5-1.6,0.7-2.3
			c0.4-1.3,0.8-2.6,1.1-3.9c0.4-1.4,0.7-2.8,1-4.2l0-0.2c0.1-0.6,0.2-1.3,0.2-2c0-0.6,0.1-1.2,0.2-1.8c0.1-0.5,0.1-1,0.2-1.5
			c0,0,0-0.1,0-0.1c0,0,0.1,0,0.1,0c0.4-0.2,0.9-0.3,1.4-0.4c0.6-0.1,1.2-0.2,1.8-0.3c1-0.1,1.9-0.4,2.7-0.7c0,0.1,0,0.1,0,0.2
			l0,0.2c-0.1,1.1-0.4,2.3-0.8,3.4c-0.5,1.4-1,2.9-1.5,4.4c-0.5,1.4-1.1,2.9-1.8,4.5c-0.9,2.1-1.5,4.2-1.6,6.3l-0.1,2
			c-0.9,0.6-1.5,1.4-1.9,2c-0.7,1.1-1.2,2.3-1.7,3.6c-1.8,5-3.5,9.9-5.2,14.8c-1.7,4.8-3.5,9.7-5.5,14.5c-0.6,1.4-1,2.8-1.4,4.1
			c-0.5,1.6-0.7,3.2-0.7,4.8c-0.1,1.7,0.2,3.2,0.9,4.4c0.8,1.3,1.9,2.3,3.2,2.8c0.3,0.1,0.7,0.2,1,0.3
			C140.5,90.4,140,90.8,139.5,91.1z M150,69.6c-0.4,1.1-0.8,2.3-1.2,3.6c-0.3,0.6-0.6,1.2-0.9,1.8c-0.7,1.5-1.5,3-2.3,4.5
			c-0.6,1.2-1.4,2.2-2.4,3c-0.1,0.1-0.3,0.2-0.4,0.3l0-0.2c0-1,0.2-2,0.4-3c0.3-1.2,0.8-2.3,1.2-3.5c2-4.9,3.9-9.9,5.6-14.9
			c1.7-4.9,3.4-9.8,5.2-14.8c0.3-0.8,0.6-1.6,1-2.2c0,0,0.2-0.1,0.4-0.1l0.2-0.1c0.6-0.2,1.3-0.3,2.1-0.4c0.7-0.1,1.4-0.2,2.1-0.4
			l0.2,0.6L162,43c0,0,0,0,0.1,0l-0.1,0.1c-2.3,4.2-4.5,8.7-6.5,13.1v0C153.5,60.7,151.7,65.2,150,69.6z M160.1,81.7
			c0.7,1.4,1.7,2.4,3,3c0.3,0.2,0.7,0.3,1,0.4c-0.5,0.3-1,0.6-1.6,0.9c-1.1,0.6-2.4,0.7-3.7,0.5l-0.2,0c-0.4-0.1-0.8-0.2-1.4-0.6
			c-0.8-0.5-1.4-1-1.7-1.7c-0.3-0.8-0.5-1.6-0.6-2.5l-0.5-3.9c0.3-0.6,0.6-1.1,0.8-1.7l0.1-0.3l0.1-0.3c0.3-1.2,0.7-2.2,1-3.2
			c1.6-4.4,3.4-8.7,5.3-13v0c1.9-4.2,4-8.5,6.2-12.5c0.8-1.3,1.4-2.6,1.9-3.8l0.1-0.2c0.1-0.3,0.2-0.6,0.3-0.9l4.3-2.6l-3.1-1.9
			c0.4-0.2,0.7-0.5,1-0.8c0.8-0.8,1.5-1.7,2.1-2.7c0.5-0.9,1-1.8,1.3-2.8c0.3-0.8,0.6-1.5,0.9-2.2c0.5-1.3,1-2.6,1.4-3.8
			c0.5-1.3,0.9-2.7,1.3-4.1l0-0.2c0.1-0.6,0.2-1.2,0.3-2c0.1-0.6,0.2-1.2,0.3-1.8c0.1-0.5,0.2-1,0.4-1.4c0,0,0-0.1,0-0.1
			c0,0,0.1,0,0.1,0c0.4-0.1,0.9-0.2,1.4-0.3c0.6-0.1,1.2-0.1,1.8-0.2c1-0.1,1.9-0.2,2.7-0.5c0,0.1,0,0.1,0,0.2l0,0.2
			c-0.2,1.1-0.6,2.3-1.1,3.3c-0.6,1.4-1.2,2.8-1.8,4.2c-0.6,1.4-1.3,2.9-2.1,4.4c-1.1,2-1.8,4.1-2.1,6.2l-0.3,1.9
			c-0.9,0.6-1.6,1.3-2,1.9c-0.8,1-1.4,2.2-1.9,3.5c-2.1,4.8-4.2,9.6-6.3,14.4c-2,4.7-4.2,9.4-6.6,14.1c-0.6,1.3-1.2,2.7-1.7,4
			c-0.6,1.5-0.9,3.1-1.1,4.7C159.3,79,159.5,80.5,160.1,81.7z M178.5,59.7l-0.2,0.3c-1.1,1.8-2.1,3.6-3.1,5.4
			c-0.9,1.7-1.9,3.4-3,5.2c-0.8,1.4-1.7,2.9-2.6,4.3c-0.7,1.1-1.6,2.1-2.7,2.8c-0.2,0.1-0.3,0.2-0.4,0.3l0-0.2c0.1-1,0.3-2,0.7-2.9
			c0.4-1.1,0.9-2.3,1.5-3.4c2.4-4.8,4.6-9.6,6.7-14.4c2.1-4.7,4.1-9.5,6.3-14.4c0.3-0.8,0.7-1.5,1.1-2.1c0,0,0.2-0.1,0.4-0.1l0.2,0
			c0.6-0.1,1.3-0.2,2.1-0.2h0c1.8,0,3.5-0.6,4.8-1.6c0.1-0.1,0.2-0.1,0.2-0.2c-1.3,2.6-2.6,5.3-4,8c-1.3,2.4-2.6,4.9-4,7.3
			c-0.1,0.2-0.2,0.4-0.3,0.6c-0.6,0.6-1.2,1.2-1.7,2c-0.6,0.8-1.1,1.6-1.5,2.4C178.6,59.5,178.5,59.7,178.5,59.7z M196.8,63.7
			c-0.7,1.5-1.3,3.2-1.8,5.1c-0.1,0.4-0.2,0.8-0.3,1.2c-0.3,0.4-0.7,0.9-1,1.3c-0.6,0.7-1.2,1.3-1.8,2.1c0.3-0.5,0.5-0.9,0.7-1.2
			c0.9-1.7,1.8-3.4,2.6-5.1c0.8-1.6,1.5-3.1,2.3-4.7C197.1,62.8,196.9,63.2,196.8,63.7z M193.3,54.7c-0.4,0.8-0.7,1.5-1.1,2.3
			c-0.3,0.6-0.6,1.2-0.9,1.7l-0.2,0.3c-0.8,1.7-1.7,3.3-2.5,5c-0.8,1.6-1.6,3.2-2.5,4.8c-0.2,0.5-0.6,1.1-1,1.8
			c-0.5,0.9-1,1.8-1.4,2.8c-0.5,1.1-0.8,2.3-0.9,3.4c-0.2,1.8,0.3,3.4,1.4,4.6c0.3,0.3,0.6,0.6,0.9,0.9c-0.5,0.2-1,0.4-1.5,0.6
			c-0.2,0.1-0.4,0.1-0.5,0.1c-0.2,0-0.4,0.1-0.6,0.1c-0.5,0-0.9-0.2-1.3-0.5c-0.4-0.3-0.7-0.6-0.9-1c-0.4-1-0.5-2-0.5-3.2
			c0.1-0.8,0.2-1.5,0.3-2.3l1.6-8.3c0.7-1.3,1.5-2.7,2.3-4c0.2-0.3,0.5-0.7,1-1.6c0.3-0.6,0.7-1.2,1.2-1.8c0.3-0.5,0.6-0.8,0.8-0.9
			l0.6-0.5l0.6-1.2c0.1-0.2,0.2-0.4,0.3-0.5c1.4-2.5,2.8-5,4.1-7.5c1.4-2.7,2.8-5.4,4.1-8.1c1.3-2.7,2.6-5.3,4-8
			c1.2-2.5,2.6-5,4.1-7.4c1.6-2.7,3-5.5,4-8.3c0.4-0.9,0.7-1.8,0.9-2.7c0.1-0.6,0.3-1.2,0.4-1.8l0.2,0c0.8-0.1,1.5-0.1,2.2-0.3
			c0.6-0.1,1.3-0.3,2.1-0.5l0.2-0.1c0.1,0,0.2-0.1,0.3-0.1c0,0.2,0,0.3,0,0.5c0,0.3-0.1,0.5-0.2,0.8c-3.1,5.9-6.2,11.8-9.1,17.7
			c-1.9,3.8-4,7.7-6.1,11.4C197.4,46.7,195.3,50.7,193.3,54.7z M211.5,54.2c-0.1,0.2-0.4,0.6-0.7,1.2c-0.4,0.7-0.8,1.5-1.2,2.2
			c-0.5,1-0.8,1.9-0.8,2.8c-0.1,0.8,0.1,1.6,0.4,2.3c-1.1,0.8-2,1.9-2.8,3.1c-0.8,1.3-1.4,2.8-1.9,4.6c-0.4,1.3-0.5,2.6-0.4,3.9
			c0,0.2,0,0.4,0.1,0.6c-1,0.4-2.1,0.8-3.1,1.2c0,0,0-0.1,0-0.1l-0.2-2.6l0.4-0.5l0.2-0.7c0.1-0.5,0.2-1,0.3-1.4
			c0.5-1.6,1-3,1.5-4.2l0-0.1c1.4-3.4,3.2-6.7,5.3-9.6c1.4-2,3.1-3.8,4.9-5.5C212.8,52.2,212.1,53.2,211.5,54.2z M230.5,49L230.5,49
			c-0.5,0.9-1.2,1.8-2.1,2.7c0.2-0.4,0.5-0.8,0.7-1.2l0,0c0.9-1.6,1.3-3.3,1.4-5c0-0.6,0-1.3-0.2-1.9c0.1,0,0.2,0.1,0.3,0.1
			c0.6,1,0.8,1.8,0.8,2.6C231.3,47.2,231,48.1,230.5,49z"/>
	</g>
	<g>
		<g>
			<path class="st5" d="M51.9,161.7"/>
		</g>
	</g>
</g>
<g>
	<g>
		<path class="st6" d="M153.9,138.8h21.5v6.3h-7.3V183h-6.9v-37.9h-7.3V138.8z"/>
		<path class="st4" d="M170.1,185h-10.9v-37.9h-7.3v-10.3h25.5v10.3h-7.3V185z M163.1,181h2.9v-37.9h7.3v-2.3h-17.5v2.3h7.3V181z"/>
	</g>
	<g>
		<path class="st6" d="M192.9,183c-0.4-1.1-0.6-1.8-0.6-5.4v-6.9c0-4.1-1.4-5.6-4.5-5.6h-2.4v18h-6.9v-44.2h10.5
			c7.2,0,10.3,3.3,10.3,10.2v3.5c0,4.5-1.5,7.5-4.5,9c3.5,1.5,4.6,4.8,4.6,9.4v6.8c0,2.1,0.1,3.7,0.8,5.4H192.9z M185.3,145.1v13.6
			h2.7c2.6,0,4.2-1.1,4.2-4.7v-4.4c0-3.2-1.1-4.5-3.5-4.5H185.3z"/>
		<path class="st4" d="M203,185h-11.5l-0.5-1.4l1.9-0.6l-1.9,0.6c-0.5-1.4-0.7-2.3-0.7-6v-6.9c0-3.6-1.1-3.6-2.5-3.6h-0.4v18h-10.9
			v-48.2h12.5c8.2,0,12.3,4.1,12.3,12.2v3.5c0,3.9-1,6.9-3,8.9c3.1,3,3.1,7.7,3.1,9.5v6.8c0,1.9,0,3.3,0.6,4.6L203,185z M194.4,181
			h2.9c-0.1-1.1-0.2-2.2-0.2-3.4v-6.8c0-5.4-1.7-6.9-3.4-7.6l-4.2-1.7l4.1-1.9c1.5-0.7,3.4-2.2,3.4-7.2v-3.5c0-5.9-2.3-8.2-8.3-8.2
			h-8.5V181h2.9v-18h4.4c6.5,0,6.5,5.7,6.5,7.6v6.9C194.2,179.3,194.3,180.3,194.4,181z M188,160.7h-4.7v-17.6h5.3
			c2.5,0,5.5,1.1,5.5,6.5v4.4C194.2,158.3,192,160.7,188,160.7z M187.3,156.7h0.7c1.4,0,2.2-0.1,2.2-2.7v-4.4c0-2.5-0.6-2.5-1.5-2.5
			h-1.3V156.7z"/>
	</g>
	<g>
		<path class="st6" d="M203.7,138.8h6.9V183h-6.9V138.8z"/>
		<path class="st4" d="M212.7,185h-10.9v-48.2h10.9V185z M205.7,181h2.9v-40.2h-2.9V181z"/>
	</g>
	<g>
		<path class="st6" d="M226.2,174.8l5.3-36.1h6.4l-6.8,44.2h-10.4l-6.8-44.2h7L226.2,174.8z"/>
		<path class="st4" d="M225.7,185H219l-7.4-48.2h11.1l3.6,24.3l3.6-24.3h10.4l-7.4,48.2h-6H225.7z M227.3,181h2l6.2-40.2h-2.3
			L227.3,181z M222.4,181h2.7l-5.9-40.2h-2.9L222.4,181z"/>
	</g>
	<g>
		<path class="st6" d="M241.1,138.8h6.9V183h-6.9V138.8z"/>
		<path class="st4" d="M250,185h-10.9v-48.2H250V185z M243.1,181h2.9v-40.2h-2.9V181z"/>
	</g>
	<g>
		<path class="st6" d="M275.6,183h-7l-1.2-8h-8.5l-1.2,8h-6.4l7.1-44.2h10.2L275.6,183z M259.7,169h6.7l-3.3-22.4L259.7,169z"/>
		<path class="st4" d="M277.9,185h-11.1l-1.2-8h-5.1l-1.2,8h-10.4l7.7-48.2h5.9h1.1h6.6L277.9,185z M270.3,181h2.9l-6.4-40.2h-2.6
			l4.5,30.2h-11.3l4.5-30.2H260l-6.4,40.2h2.3l1.2-8h12L270.3,181z M262,167h2.1l-1-6.8L262,167z"/>
	</g>
	<g>
		<path class="st6" d="M279.7,173.2l-0.9-16v-18.4h6.9v18.4l-0.9,16H279.7z M285.6,176.3v6.7h-6.7v-6.7H285.6z"/>
		<path class="st4" d="M287.6,185h-10.7v-10.7h0.8l-0.9-17.1v-20.4h10.9l0,20.5l-0.9,17h0.8V185z M280.9,181h2.7v-2.7h-2.7V181z
			 M281.6,171.2h1.4l0.8-14v-16.4h-2.9v16.4L281.6,171.2z"/>
	</g>
</g>
<g>
	<path class="st3" d="M238.5,55.9c-0.2-0.8-0.5-1.2-0.8-1.1s-0.7,0.4-1,0.9c-0.3,0.5-0.7,1.1-1,1.7c-0.3,0.6-0.5,1-0.6,1.2
		c-1.4,2.1-2.8,4.2-4.4,6.2c-0.6,0.8-1.3,1.6-1.9,2.4c0.9-0.7,1.7-1.5,2.5-2.3c1-1,2.2-1.5,3.3-1.5c0.5-0.6,0.9-1.3,1.4-1.9
		c0.6-0.7,1.2-1.6,1.9-2.7C238.6,58,238.8,56.9,238.5,55.9z"/>
	<g>
		<path class="st7" d="M171.9,93.8c-12.2,2.1-24.5,4.8-36.8,8.5c-12.2,3.8-24.3,8.4-36,14.4c-5.8,3-11.5,6.3-16.9,10.2
			c-5.4,3.8-10.5,8.1-15.1,12.9c-4.6,4.8-8.7,10.3-11.6,16.4l-1.1,2.3l-0.9,2.4c-0.3,0.8-0.6,1.6-0.8,2.4l-0.6,2.5l-0.3,1.2
			c-0.1,0.4-0.1,0.9-0.2,1.3l-0.4,2.6c-0.2,0.9-0.1,1.7-0.2,2.5l-0.1,2.5c0,6.1,1.2,11.1,3.5,14.3c-1.5-7.6-0.7-11-0.6-14.3l0.2-2.4
			c0.1-0.8,0.1-1.7,0.2-2.4l0.4-2.3c0.1-0.4,0.1-0.8,0.2-1.1l0.3-1.1l0.7-2.3c0.2-0.8,0.6-1.5,0.8-2.2l0.9-2.2l1.1-2.1
			c2.9-5.6,6.9-10.6,11.4-15c9.1-8.8,20.1-15.6,31.5-21c11.4-5.5,23.4-9.6,35.3-12.9c9.2-2.5,18.4-4.5,27.6-6.1
			c4.4-2.9,8.2-6.6,12.5-9.7C175.4,93.3,173.7,93.6,171.9,93.8z"/>
		<path class="st7" d="M56.2,146.6c1.6-1.9,3-4,4.2-6.5c1.2-2.4,2.2-4.9,3-7.6c0.8-2.6,1.3-5.3,1.5-7.9c0.2-2.7,0.1-5.2-0.4-7.7
			c-0.5-2.6-1.3-5.3-2.4-8.1c-1.1-2.8-2.6-5.2-4.4-7.3c-2.3-2.7-5-4.9-8.1-6.6c-3.1-1.7-6.3-3.2-9.5-4.4c-1.3-0.5-2.6-1-3.9-1.4
			c-1.3-0.4-2.6-0.8-3.9-1.2c-2.3-0.8-4.5-1.6-6.7-2.5c-2.2-0.9-4.3-2.2-6.1-3.8c-1.1-1-2.1-2.2-3.1-3.6c-0.9-1.4-1.7-2.8-2.2-4.2
			c-0.4-1.2-0.7-2.4-0.7-3.8c-0.1-1.3,0.1-2.6,0.5-3.9c0.4-1.3,0.9-2.4,1.7-3.4c0.8-1,1.8-1.8,3-2.4c1.1-0.5,2.2-0.7,3.4-0.6
			c1.2,0.1,2.3,0.3,3.4,0.8c1.1,0.4,2.2,1,3.2,1.7c1,0.7,1.9,1.4,2.6,2.2c0.9,0.9,1.7,1.9,2.5,3c0.8,1.1,1.3,2.3,1.8,3.6
			c0.4,1.3,0.6,2.5,0.5,3.8c-0.1,1.3-0.5,2.5-1.4,3.6c-0.3,0.4-0.6,0.8-0.8,1.1c-0.2,0.4,0,0.7,0.6,1.1c0.5,0.4,0.9,0.5,1.4,0.4
			c0.4-0.1,0.9-0.4,1.2-0.7c0.4-0.3,0.7-0.7,1-1.2c0.3-0.5,0.5-0.9,0.7-1.3c0.7-1.2,1.1-2.5,1.4-3.9c0.3-1.4,0.3-2.8,0.2-4.2
			c-0.2-1.9-0.6-3.6-1.2-5.1c-0.6-1.5-1.5-3-2.6-4.6c-1-1.4-2.3-2.6-3.8-3.8c-1.5-1.2-3.2-2.1-4.9-2.7c-1.7-0.6-3.5-0.9-5.3-0.8
			c-1.8,0.1-3.5,0.8-5.1,2.1c-0.1,0.1-0.3,0.2-0.5,0.4c-0.2,0.2-0.4,0.3-0.6,0.4c-0.9,0.6-1.8,1.7-2.8,3.1c-1,1.4-1.8,3-2.5,4.5
			c-0.5,1.3-0.9,2.6-1.2,3.9c-0.3,1.3-0.6,2.7-0.7,4C9,72.4,9,73.6,9,74.8c0.1,1.2,0.2,2.4,0.4,3.6c0.4,2.1,1,4,1.9,6
			c0.9,1.9,2,3.7,3.3,5.4c1.3,1.7,2.7,3.2,4.4,4.5c1.7,1.3,3.5,2.4,5.4,3.2c1.5,0.6,3.1,1.3,4.6,1.9s3.1,1.3,4.6,1.9
			c2.8,1,5.7,2,8.6,2.9c2.9,1,5.5,2.4,7.9,4.3c1.7,1.4,3.1,2.9,4.3,4.5c1.1,1.4,2,3,2.8,4.8c0.8,1.8,1.3,3.6,1.7,5.2
			c0.2,1,0.4,2.1,0.5,3.2c0.1,1.1,0.1,2.2,0.1,3.2c-0.1,1.9-0.5,3.7-1.2,5.5c-0.7,1.8-1.6,3.4-2.8,4.9c-1.2,1.5-2.5,2.8-4.1,3.9
			c-1.6,1.1-3.2,1.9-5.1,2.4c-1.4,0.4-2.9,0.7-4.7,1c-1.7,0.3-3.3,0.3-4.8,0c-1.3-0.2-2.6-0.6-3.9-1.1c-1.3-0.5-2.5-1.2-3.6-1.9
			c-2.6-1.7-4.9-4-6.8-6.7c-1.9-2.8-3.4-5.6-4.4-8.6c-0.6-1.7-0.9-3.4-0.9-5.2c-0.1-1.8,0.1-3.6,0.7-5.3c0.5-1.7,1.3-3.2,2.5-4.6
			c1.2-1.3,2.7-2.3,4.5-2.9c1.4-0.4,2.8-0.5,4.3,0c1.4,0.4,2.8,1.1,4,2.1c1.2,1,2.3,2.1,3.3,3.3c1,1.3,1.7,2.5,2.2,3.6
			c0.3,0.6,0.5,1.3,0.5,2c0,0.7,0,1.4,0,2.2c0,0.2,0,0.5,0,0.8c0,0.3,0.1,0.6,0.2,0.9c0.1,0.3,0.2,0.5,0.4,0.7
			c0.2,0.2,0.4,0.2,0.7,0.2c0.4,0,0.7-0.3,1-0.6c0.2-0.4,0.4-0.8,0.6-1.3c0.1-0.5,0.2-0.9,0.3-1.4c0.1-0.5,0.1-0.9,0.1-1.2
			c0.1-1.1,0-2.3-0.1-3.3c-0.2-1.1-0.4-2.2-0.8-3.3c-0.7-2-1.8-3.9-3.3-5.8c-1.5-1.9-3.2-3.4-5.1-4.6c-1.9-1.2-3.9-1.8-6.1-1.9
			c-2.2-0.1-4.3,0.7-6.4,2.2c-1,0.7-1.8,1.6-2.5,2.6c-0.7,1-1.3,2-1.8,3.1c-1.5,3.5-2.5,7.2-2.9,11.1c-0.3,3-0.1,6.1,0.6,9.4
			c0.6,3.3,1.7,6.4,3.2,9.3c1.5,2.9,3.3,5.6,5.6,7.9c2.2,2.4,4.8,4.1,7.7,5.3c3,1.2,6,1.8,8.8,1.8c2.8-0.1,5.7-0.8,8.6-2.4
			c1.1-0.6,2.1-1.2,3.1-2c1-0.7,1.9-1.5,2.8-2.4C54.5,148.5,55.4,147.6,56.2,146.6z"/>
		<path class="st7" d="M235.6,49.7c0.8-1.3,1.2-2.8,1.3-4.3c0.1-1.5-0.3-3-1.3-4.6c-0.9-1.5-2.7-2.1-5.4-1.7c-2.5,0.4-5,1.1-7.4,2.2
			c-2.4,1.1-4.6,2.4-6.7,3.9c-3.3,2.4-6.1,5.3-8.4,8.5c-2.3,3.2-4.2,6.7-5.7,10.4c-0.6,1.4-1.2,2.9-1.7,4.7
			c-0.2,0.6-0.3,1.1-0.4,1.7c-0.5,0.7-1,1.4-1.6,2.1c-0.9,1-1.8,2.1-2.9,3.2c-1,1.1-2.2,2-3.4,2.6c-0.5,0.2-1,0.3-1.6,0.4
			c-0.6,0-1.1-0.2-1.5-0.6c-0.4-0.5-0.6-1.1-0.5-1.9c0.1-0.8,0.3-1.6,0.7-2.4c0.4-0.8,0.8-1.6,1.2-2.4c0.4-0.8,0.8-1.4,1.1-1.9
			c0.9-1.7,1.7-3.3,2.5-5c0.8-1.7,1.6-3.3,2.4-5c0.4-0.7,0.8-1.4,1.1-2.1c0.3-0.7,0.7-1.5,1-2.2c2-3.9,4-7.8,6.2-11.6
			c2.2-3.8,4.2-7.6,6.2-11.6c2.9-5.9,6-11.8,9.1-17.7c0.4-0.7,0.6-1.4,0.6-2.2c0.1-0.8,0.1-1.5,0.1-2.3c0-0.6-0.2-1.1-0.4-1.5
			c-0.2-0.3-0.7-0.5-1.3-0.6c-0.5-0.1-1.1-0.1-1.6,0c-0.6,0.1-1.1,0.2-1.5,0.4c-0.6,0.2-1.2,0.3-1.8,0.4c-0.6,0.1-1.2,0.2-1.8,0.2
			c-0.8,0-1.5,0.1-2.1,0.4c-0.6,0.3-1,0.9-1.2,1.8c-0.1,0.8-0.3,1.5-0.5,2.3c-0.2,0.8-0.4,1.5-0.7,2.2c-1,2.7-2.3,5.3-3.8,7.8
			c-1.5,2.5-2.9,5.1-4.2,7.7c-1.3,2.7-2.7,5.4-4,8c-1.3,2.7-2.7,5.3-4.1,8c-1.3,2.5-2.6,5-4,7.4c-0.2,0.4-0.4,0.7-0.6,1.1
			c0,0-0.1,0-0.1,0.1c-0.5,0.4-1,1-1.5,1.7c-0.5,0.7-0.9,1.4-1.4,2.1c-0.4,0.7-0.7,1.2-0.8,1.4c-1.1,1.8-2.1,3.5-3,5.3
			c-1,1.8-2,3.5-3,5.3c-0.9,1.5-1.8,3-2.7,4.4c-1,1.5-2.1,2.7-3.5,3.8c-0.8,0.6-1.6,1-2.3,1.1c-0.8,0.2-1.4,0.1-2-0.2
			s-1-0.7-1.4-1.4c-0.3-0.7-0.4-1.5-0.3-2.5c0.1-1.3,0.4-2.6,0.9-3.9c0.5-1.3,1-2.5,1.6-3.7c2.4-4.7,4.6-9.5,6.6-14.2
			c2.1-4.8,4.1-9.5,6.3-14.4c0.4-1.1,1-2,1.6-2.9c0.6-0.8,1.5-1.3,2.7-1.5c0.9-0.2,1.8-0.3,2.9-0.3c1,0,1.9-0.3,2.7-0.9
			c0.4-0.3,0.7-0.8,0.9-1.5c0.2-0.7,0.1-1.3-0.4-1.5c-0.4-0.2-0.8-0.3-1.3-0.2c-0.5,0-1,0.1-1.6,0.2c-0.6,0.1-1.1,0.2-1.6,0.3
			c-0.5,0.1-1,0.1-1.3,0.1c0.2-1.7,0.8-3.4,1.7-5c0.9-1.6,1.7-3.2,2.3-4.7c0.6-1.4,1.2-2.8,1.8-4.1c0.6-1.3,1.1-2.7,1.3-4.1
			c0.1-0.6,0.3-1.3,0.5-2.1c0.2-0.8,0.1-1.4-0.3-2c-0.6-0.7-1.3-1-2.2-0.9c-0.9,0.2-1.6,0.3-2.3,0.6c-0.6,0.2-1.2,0.3-1.9,0.4
			c-0.7,0-1.4,0.1-2.1,0.2c-0.7,0.1-1.4,0.3-2,0.5c-0.6,0.2-1.1,0.5-1.6,0.9c-0.4,0.4-0.6,0.9-0.8,1.5c-0.2,0.6-0.3,1.2-0.5,1.8
			c-0.1,0.6-0.2,1.3-0.3,1.9c-0.1,0.6-0.2,1.2-0.3,1.7c-0.4,1.3-0.7,2.6-1.2,3.8c-0.4,1.3-0.9,2.5-1.4,3.8c-0.3,0.7-0.5,1.4-0.8,2.2
			c-0.3,0.8-0.7,1.6-1.1,2.3c-0.4,0.7-0.9,1.4-1.5,2c-0.6,0.6-1.3,1-2.1,1.2c-0.4,0.1-0.9,0.2-1.6,0.2c-0.7,0-1.4,0.1-2,0.2
			c-0.7,0.1-1.3,0.3-1.8,0.7c-0.2,0.1-0.4,0.3-0.5,0.5c-0.1-0.2-0.2-0.4-0.4-0.5c-0.4-0.2-0.8-0.2-1.3-0.1c-0.5,0.1-1,0.2-1.6,0.3
			c-0.5,0.1-1.1,0.3-1.6,0.4c-0.5,0.1-1,0.2-1.3,0.2c0.1-1.7,0.5-3.4,1.3-5.1c0.8-1.7,1.4-3.3,1.9-4.9c0.5-1.4,1-2.8,1.5-4.2
			s0.9-2.8,1-4.2c0.1-0.6,0.2-1.3,0.3-2.1c0.1-0.8-0.1-1.4-0.5-1.9c-0.6-0.7-1.4-0.9-2.2-0.7c-0.9,0.2-1.6,0.5-2.3,0.7
			c-0.6,0.2-1.2,0.4-1.9,0.5c-0.7,0.1-1.4,0.2-2.1,0.4s-1.3,0.4-1.9,0.6c-0.6,0.3-1.1,0.6-1.5,1c-0.3,0.4-0.6,1-0.7,1.6
			c-0.1,0.6-0.2,1.2-0.3,1.9c-0.1,0.6-0.1,1.3-0.2,1.9c0,0.6-0.1,1.2-0.2,1.7c-0.3,1.3-0.6,2.6-0.9,3.9c-0.4,1.3-0.7,2.6-1.1,3.9
			c-0.2,0.7-0.4,1.5-0.7,2.3c-0.2,0.8-0.6,1.6-0.9,2.4c-0.4,0.8-0.8,1.5-1.4,2.1c-0.5,0.6-1.2,1-2,1.3c-0.4,0.1-0.9,0.2-1.6,0.3
			c-0.7,0.1-1.3,0.2-2,0.3c-0.7,0.2-1.2,0.4-1.7,0.8c-0.5,0.4-0.7,0.9-0.7,1.5c0,0.7,0.3,1.1,0.8,1.3c0.5,0.1,1.1,0.1,1.7,0
			c0.6-0.1,1.3-0.2,2-0.3c0.7-0.1,1.2-0.1,1.7,0.1c-0.4,0.3-0.6,0.6-0.7,1.1c-0.1,0.5-0.2,0.9-0.3,1.3c-0.3,1-0.8,2.2-1.4,3.4
			c-1.9,4.3-3.7,8.8-5.4,13.3s-3.1,9.1-4.4,13.6c-0.4,1.4-0.8,2.9-1.1,4.7c-0.1,0.9-0.2,1.8-0.3,2.8c-0.2,0.5-0.4,1-0.6,1.4
			c-0.7,1.6-1.4,3.2-2.2,4.8c-0.2,0.2-0.4,0.6-0.6,1.1c-0.3,0.5-0.6,0.9-0.9,1.4c-0.3,0.5-0.7,0.9-1.1,1.2c-0.4,0.3-0.8,0.4-1.2,0.4
			c-0.5-0.1-0.9-0.3-1-0.7c-0.2-0.4-0.3-0.8-0.3-1.2c-0.3-2.1-0.2-4.2,0.3-6.3c0.5-2.1,0.9-4.2,1.3-6.1c0.2-1,0.4-1.9,0.5-2.8
			c0.2-0.9,0.3-1.9,0.5-2.8c0.6-3.2,1.1-6.4,1.6-9.6c0.5-3.2,1.1-6.4,1.9-9.5c0-0.2,0.1-0.5,0.2-0.8c0.1-0.3,0.1-0.7,0.1-0.9
			c0-0.3-0.1-0.6-0.2-0.8c-0.2-0.3-0.4-0.4-0.7-0.5c-0.5-0.1-1,0-1.4,0.4c-0.4,0.4-0.8,0.6-1.2,0.8c-0.9,0.4-1.9,0.8-2.9,1.1
			c-1,0.3-1.9,0.8-2.6,1.5c-0.6,0.5-0.9,1.1-1,1.8c-0.1,0.2-0.2,0.5-0.3,1.1c-0.1,0.6-0.1,0.9,0,1c-0.7-0.4-1.3-0.9-1.8-1.5
			c-0.6-0.5-1.3-0.8-2.1-0.7c-0.6,0-1.1,0.1-1.7,0.2c-0.5,0.1-1.1,0.3-1.6,0.4c-1.1,0.4-2.1,1-3,1.8c-0.9,0.8-1.7,1.5-2.6,2.3
			c-1,0.9-2,1.8-2.8,2.9c-0.8,1-1.7,2-2.5,3.1c-0.5,0.8-1,1.5-1.5,2.3c-0.5,0.7-0.9,1.5-1.3,2.3c-1.5,2.8-2.7,5.6-3.5,8.5
			c-0.9,2.9-1.6,5.9-2.1,8.9c-0.4,2.1-0.5,4.1-0.4,6.2c0.1,1.6,0.3,3.1,0.6,4.5c0,0.1,0.1,0.3,0.1,0.4c-0.2,0.8-0.4,1.6-0.6,2.4
			c-0.3,1.1-0.7,2.2-1.2,3.2c-0.5,1-1.1,2-1.8,2.9c-0.7,0.9-1.5,1.6-2.5,2.2c-1,0.6-1.9,0.9-2.8,0.9c-0.8,0-1.6-0.3-2.3-0.7
			c-0.7-0.5-1.3-1.1-1.8-1.9c-0.5-0.8-0.8-1.6-1.1-2.6c-0.4-1.5-0.6-2.8-0.5-3.9c0.1-1.1,0.3-2.1,0.7-3c0.4-0.9,1-1.8,1.7-2.8
			c0.7-0.9,1.5-1.9,2.4-3.1c0.8-1,1.6-2.2,2.6-3.6c1-1.4,1.8-2.9,2.6-4.5c0.8-1.6,1.5-3.2,2-4.9s0.8-3.3,0.9-4.8c0-1.5-0.3-3-1-4.3
			c-0.7-1.4-1.8-2.5-3.3-3.4c-1.5-0.9-3.3-0.5-5.6,1.1c-2,1.5-3.8,3.4-5.4,5.5c-1.6,2.1-2.9,4.3-3.9,6.7c-1.7,3.7-2.8,7.6-3.2,11.5
			c-0.5,3.9-0.4,7.9,0,11.8c0.1,1.5,0.4,3.1,0.8,4.9c0.4,1.8,1,3.4,1.8,5c0.8,1.5,1.8,2.8,3.1,3.8c1.3,1,2.9,1.5,4.9,1.5
			c1.5,0,2.9-0.3,4.3-1c1.3-0.5,2.4-1.2,3.4-2c1-0.8,1.9-1.7,2.7-2.8c1.6-2,2.8-4.2,3.6-6.4c0.4-1.1,0.8-2.2,1.1-3.4
			c0.2,0.3,0.4,0.6,0.6,0.9c0.6,0.8,1.4,1.5,2.2,2c0.9,0.5,1.8,0.8,3,0.7l0.2,0c1.4-0.1,2.7-0.7,4-1.5c1.2-0.9,2.3-1.8,3.2-2.9
			c1.7-2,3.1-4.3,4.1-6.7c0.2-0.6,0.4-1.1,0.7-1.7c0.2-0.5,0.5-1.1,0.8-1.6c0.1-0.3,0.3-0.7,0.4-1c0.1-0.4,0.3-0.7,0.6-0.8
			c0.2,0.3,0.2,0.5,0.2,0.9c0,0.3,0,0.6,0,1c0.2,1.3,0.6,2.6,1.4,3.7c0.7,1.2,1.7,2,3,2.6c1.4,0.6,2.6,0.7,3.8,0.2
			c1.2-0.5,2.3-1.3,3.3-2.3c1-1,1.9-2.2,2.6-3.5c0.7-1.3,1.3-2.5,1.7-3.5c0.4-1,0.8-2,1.3-3.1c0.2,0.9,0.5,1.7,0.9,2.5
			c0.7,1.4,1.9,2.5,3.5,3.3c0.9,0.5,1.8,0.7,2.7,0.8c2.2,0.3,4.1-0.1,5.9-1.2c1.8-1,3.4-2.4,4.8-4.1c1.4-1.7,2.7-3.5,3.8-5.4
			c0.5-0.9,1-1.8,1.5-2.6c0.1,1.2,0.4,2.3,0.9,3.4c0.6,1.5,1.7,2.7,3.2,3.5c0.9,0.5,1.8,0.8,2.6,1c2.1,0.4,4.1,0.2,6-0.8
			c1.8-0.9,3.5-2.2,5.1-3.7c1.6-1.6,3-3.3,4.2-5.1c1.2-1.8,2.4-3.5,3.4-4.9c-0.2,0.9-0.3,1.8-0.4,2.7c-0.1,1.8,0.1,3.4,0.8,4.9
			c0.5,1,1.2,1.9,2.3,2.5c1,0.6,2.1,1,3.2,1c0.4,0,0.8-0.1,1.1-0.1c0.4-0.1,0.7-0.2,1.1-0.3c2-0.7,3.7-1.7,5.1-2.8
			c1.4-1.1,2.8-2.4,4.3-3.9c1.1-1,2.2-2.1,3.1-3.2c0.1,1.3,0.4,2.5,0.8,3.6c0.2,0.4,0.4,0.9,0.7,1.3c2.9-1.9,6.2-3,9.5-4
			c-0.1-0.2-0.2-0.3-0.3-0.5c-0.4-0.8-0.6-1.6-0.7-2.5c-0.1-0.9,0.1-1.8,0.3-2.8c0.4-1.5,0.9-2.7,1.5-3.6c0.6-0.9,1.3-1.7,2.1-2.3
			c0.8-0.6,1.8-1.1,2.8-1.6c1.1-0.4,2.3-0.9,3.6-1.5c1.2-0.5,2.5-1.1,4-1.9c1.5-0.7,3-1.6,4.5-2.6c1.5-1,2.9-2.1,4.2-3.3
			C233.8,52.3,234.8,51,235.6,49.7z M76.3,95.3c-0.2-0.4-0.3-1-0.3-1.7c0-0.7-0.1-1.4,0-2.1c0-0.7,0.1-1.2,0.1-1.4
			c0.1-1.5,0.2-2.9,0.4-4.4c0.2-1.4,0.4-2.9,0.6-4.4c0.1-0.5,0.2-0.9,0.3-1.4c0.1-0.5,0.2-1,0.3-1.6c0.2-0.6,0.4-1.4,0.6-2.4
			c0.3-0.9,0.7-1.7,1.2-2.2c0.4-0.4,0.8-0.4,1.4-0.2c0.5,0.2,0.8,0.5,1,1c0.5,1,0.8,2.2,0.8,3.5c0,1.3-0.1,2.5-0.2,3.6
			c-0.2,1.9-0.6,3.9-1.2,5.8c-0.6,2-1.3,3.8-2.3,5.6c-0.1,0.1-0.3,0.4-0.6,1c-0.3,0.5-0.7,1-1,1.3C76.8,95.7,76.5,95.7,76.3,95.3z
			 M114.8,69c-0.2,1.3-0.4,2.7-0.6,4c-0.5,3-1,5.9-1.8,8.8c-0.7,2.9-1.6,5.8-2.5,8.6c-0.6,1.7-1.2,3.3-2,4.9c-0.8,1.6-1.8,3-3,4.3
			c-0.7,0.7-1.5,1.1-2.3,1.3c-0.8,0.1-1.5-0.2-2.3-1c-0.5-0.4-0.8-1-1-1.7c-0.2-0.7-0.2-1.4-0.3-2.1c0-0.7,0-1.5,0.1-2.2
			c0.1-0.7,0.1-1.4,0.2-1.9c0.2-1.4,0.4-2.7,0.6-4.1c0.2-1.3,0.5-2.7,0.8-4c0.3-1.3,0.6-2.6,0.9-3.9c0.3-1.3,0.6-2.6,1-3.9
			c0.6-2.3,1.4-4.7,2.2-7.3c0.9-2.5,2.1-4.7,3.6-6.5c0.6-0.7,1.3-1.3,2.2-1.9c0.9-0.6,1.8-0.6,2.7-0.1c0.7,0.5,1.2,1.2,1.4,2
			c0.2,0.9,0.3,1.7,0.3,2.5C115.1,66.3,115,67.7,114.8,69z M160.7,56.6c-2,4.4-3.8,8.8-5.4,13.3c-0.4,1.1-0.8,2.2-1.1,3.5
			c-0.3,0.7-0.7,1.4-1,2.1c-0.7,1.6-1.5,3.1-2.4,4.6s-1.9,2.9-3.2,4c-0.8,0.6-1.5,1.1-2.2,1.3c-0.7,0.2-1.4,0.2-2,0
			c-0.6-0.2-1.1-0.7-1.5-1.3c-0.4-0.6-0.5-1.5-0.5-2.5c0-1.3,0.2-2.6,0.6-3.9c0.4-1.3,0.8-2.6,1.3-3.8c2-4.9,3.9-9.8,5.6-14.7
			c1.7-4.9,3.4-9.8,5.2-14.8c0.4-1.1,0.8-2.1,1.3-3c0.5-0.9,1.4-1.4,2.6-1.7c0.9-0.2,1.8-0.4,2.8-0.5c1-0.1,1.9-0.4,2.6-1.1
			c0.2-0.2,0.4-0.5,0.5-0.8c0.1,0.2,0.3,0.4,0.6,0.5c0.5,0.2,1.1,0.2,1.7,0.2c0.6-0.1,1.3-0.1,2-0.2c0.7-0.1,1.3,0,1.6,0.3
			c-0.4,0.2-0.6,0.6-0.8,1.1c-0.1,0.5-0.3,0.9-0.4,1.3c-0.4,1-1,2.1-1.7,3.3C164.8,48,162.7,52.3,160.7,56.6z M228.1,47.7
			c-0.6,1.1-1.3,2.2-2,3.1c-1.1,1.6-2.4,3.1-3.9,4.5c-1.5,1.5-3,2.7-4.7,3.7c-0.1,0.1-0.5,0.2-1,0.6c-0.6,0.3-1.1,0.5-1.5,0.7
			c-0.6,0.1-0.9,0-0.8-0.5c0-0.4,0.2-1,0.5-1.6c0.3-0.7,0.6-1.3,1-1.9c0.4-0.6,0.6-1,0.7-1.2c0.8-1.3,1.6-2.5,2.5-3.6
			c0.9-1.2,1.7-2.4,2.6-3.6c0.3-0.4,0.6-0.7,0.9-1.1c0.3-0.4,0.7-0.8,1-1.2c0.5-0.5,1-1.1,1.7-1.8c0.7-0.7,1.4-1.1,2.1-1.3
			c0.5-0.1,1,0,1.3,0.5c0.3,0.4,0.5,0.9,0.4,1.4C229,45.4,228.7,46.6,228.1,47.7z"/>
		<g>
			<path class="st8" d="M53.9,160.7"/>
		</g>
		<g>
			<polygon class="st7" points="75.1,151.8 73,148 319.9,13 322,16.8 			"/>
		</g>
	</g>
</g>
<g>
	<path class="st6" d="M155.9,136.8h21.5v6.3h-7.3V181h-6.9v-37.9h-7.3V136.8z"/>
	<path class="st6" d="M194.9,181c-0.4-1.1-0.6-1.8-0.6-5.4v-6.9c0-4.1-1.4-5.6-4.5-5.6h-2.4v18h-6.9v-44.2h10.5
		c7.2,0,10.3,3.3,10.3,10.2v3.5c0,4.5-1.5,7.5-4.5,9c3.5,1.5,4.6,4.8,4.6,9.4v6.8c0,2.1,0.1,3.7,0.8,5.4H194.9z M187.3,143.1v13.6
		h2.7c2.6,0,4.2-1.1,4.2-4.7v-4.4c0-3.2-1.1-4.5-3.5-4.5H187.3z"/>
	<path class="st6" d="M205.7,136.8h6.9V181h-6.9V136.8z"/>
	<path class="st6" d="M228.2,172.8l5.3-36.1h6.4l-6.8,44.2h-10.4l-6.8-44.2h7L228.2,172.8z"/>
	<path class="st6" d="M243.1,136.8h6.9V181h-6.9V136.8z"/>
	<path class="st6" d="M277.6,181h-7l-1.2-8h-8.5l-1.2,8h-6.4l7.1-44.2h10.2L277.6,181z M261.7,167h6.7l-3.3-22.4L261.7,167z"/>
	<path class="st6" d="M281.7,171.2l-0.9-16v-18.4h6.9v18.4l-0.9,16H281.7z M287.6,174.3v6.7h-6.7v-6.7H287.6z"/>
</g>
</svg>
