<?xml version="1.0" encoding="utf-8"?>
<!-- Generator: Adobe Illustrator 19.0.1, SVG Export Plug-In . SVG Version: 6.00 Build 0)  -->
<svg version="1.1" id="Layer_1" xmlns="http://www.w3.org/2000/svg" xmlns:xlink="http://www.w3.org/1999/xlink" x="0px" y="0px"
	 viewBox="0 0 100 100" style="enable-background:new 0 0 100 100;" xml:space="preserve">
<style type="text/css">
	.st0{fill:#B9BBBD;}
</style>
<g>
	<path class="st0" d="M60.7,40.4c0,0-17.2,5.3-20.5,8.6c-3.3,3.3-3.3,8.6,0,11.9c3.3,3.3,8.6,3.3,11.9,0
		C55.4,57.6,60.7,40.4,60.7,40.4z"/>
	<path class="st0" d="M83.6,22.1l8.8,8.8l7.6-7.6c0,0-5-12.5-22.7-22.7l-7.6,7.6l8.8,8.8l0,0v0L76.6,19C68.5,12,58,7.8,46.4,7.8
		C20.8,7.8,0,28.5,0,54.2c0,25.6,20.8,46.4,46.4,46.4s46.4-20.8,46.4-46.4c0-11.5-4.2-22.1-11.2-30.2L83.6,22.1z M81.4,55
		c0,0,0,0.1,0,0.1h0.7c-0.4,8.2-3.6,16-9.1,22.1l-0.4-0.4c-0.1,0.1-0.2,0.2-0.2,0.3L66,70.7l-2,2l6.7,6.7
		c-6.1,5.6-13.8,8.8-22.1,9.1v-0.2c-0.2,0-0.4,0-0.7,0.1v-9.4h-2.5v9.5c-1.3-0.1-2.5-0.2-3.7-0.4c-7.1-0.9-13.7-4-19-8.9l6.7-6.7
		l-1.9-1.9l-6.5,6.5c-0.1-0.1-0.2-0.3-0.4-0.4l-0.3,0.3c-5.7-6.3-8.8-14.1-9.1-22.1h9.5v-3.1H12c0,0,0-0.1,0-0.1h-0.7
		c0.4-8,3.4-15.8,9.1-22.1l0.4,0.4c0.1-0.1,0.2-0.2,0.3-0.3l6.3,6.3l2-2l-6.7-6.7c6.1-5.6,13.8-8.8,22.1-9.1v0.2
		c0.2,0,0.4,0,0.7-0.1v9.4H48v-9.5c1.3,0.1,2.5,0.2,3.7,0.4c7.1,0.9,13.7,4,19,8.9L64,34.3l1.9,1.9l6.4-6.5c0.1,0.1,0.2,0.3,0.4,0.4
		l0.3-0.3c5.6,6.1,8.8,13.8,9.1,22.1h-9.5V55L81.4,55L81.4,55z"/>
</g>
</svg>
